/* XPM */
static char *_31b3fc577684a70fac4c17835051e16Abw7wWBsYfhiNx8E[] = {
/* columns rows colors chars-per-pixel */
"64 64 256 2 ",
"   c #1984B6",
".  c #D2D9D3",
"X  c #1885B8",
"o  c #2C2E36",
"O  c #D1D8D1",
"+  c #CED5D0",
"@  c #1784B7",
"#  c #CFD6D0",
"$  c #6E8899",
"%  c #33323E",
"&  c #C2CDCD",
"*  c #323038",
"=  c #CCD4CF",
"-  c #31303C",
";  c #24282D",
":  c #C6CFCE",
">  c #3A343C",
",  c #1983B4",
"<  c #392F34",
"1  c #24343F",
"2  c #C6CEC9",
"3  c #718A9B",
"4  c #252E36",
"5  c #C9D1CD",
"6  c #493638",
"7  c #443337",
"8  c #1A80AF",
"9  c #825D58",
"0  c #25313A",
"q  c #253744",
"w  c #242B32",
"e  c #ACBDC7",
"r  c #243B4A",
"t  c #9CB2C3",
"y  c #217FAC",
"u  c #2F2B30",
"i  c #584B4C",
"p  c #353A42",
"a  c #BFCACB",
"s  c #573D3D",
"d  c #5D4545",
"f  c #282A30",
"g  c #2B2A2F",
"h  c #D0D7D0",
"j  c #B9C6C9",
"k  c #494648",
"l  c #5B9052",
"z  c #484F59",
"x  c #417449",
"c  c #4F393B",
"v  c #514245",
"b  c #32363A",
"n  c #29453B",
"m  c #755653",
"M  c #332D32",
"N  c #CED4CE",
"B  c #393F47",
"V  c #424C53",
"C  c #29523E",
"Z  c #B4C2C9",
"A  c #336444",
"S  c #384853",
"D  c #604140",
"F  c #1D739D",
"G  c #949A9C",
"H  c #463B3E",
"J  c #ABB3B4",
"K  c #A6B7C5",
"L  c #664340",
"P  c #1F86B7",
"I  c #72504C",
"U  c #A7ACAC",
"Y  c #89625B",
"T  c #BEC3C1",
"R  c #B1B5B2",
"E  c #495760",
"W  c #345742",
"Q  c #3B3D42",
"!  c #B8BEBD",
"~  c #536471",
"^  c #666F74",
"/  c #757980",
"(  c #1C7AA7",
")  c #3E3135",
"_  c #4F844E",
"`  c #2E5D42",
"'  c #694E4C",
"]  c #364B58",
"[  c #A5A7A5",
"{  c #596C73",
"}  c #7B5657",
"|  c #565457",
" . c #298AB8",
".. c #558950",
"X. c #C2C8C5",
"o. c #555D66",
"O. c #8F5356",
"+. c #6EA8C1",
"@. c #62494B",
"#. c #837D94",
"$. c #B9C9CC",
"%. c #79858A",
"&. c #2E4B43",
"*. c #2B3B46",
"=. c #ADB8BB",
"-. c #2F718E",
";. c #3F6A84",
":. c #536E80",
">. c #3D6545",
",. c #5D626A",
"<. c #264356",
"1. c #93474E",
"2. c #9E9DA8",
"3. c #3F444A",
"4. c #6C7A87",
"5. c #AFA596",
"6. c #B4BABA",
"7. c #767272",
"8. c #758283",
"9. c #81888C",
"0. c #4E606B",
"q. c #6A5053",
"w. c #86474E",
"e. c #796367",
"r. c #756D87",
"t. c #6C6180",
"y. c #8198A6",
"u. c #82B1C4",
"i. c #677F8E",
"p. c #4B7F4C",
"a. c #28799E",
"s. c #2A333C",
"d. c #366A46",
"f. c #6C4844",
"g. c #3C4949",
"h. c #B5C1C2",
"j. c #655F5C",
"k. c #317DA1",
"l. c #3E5F72",
"z. c #2D3F4D",
"x. c #9CAAAE",
"c. c #827D80",
"v. c #403A40",
"b. c #736588",
"n. c #8E8D99",
"m. c #766F69",
"M. c #62686F",
"N. c #8A8599",
"B. c #6D8697",
"V. c #5E5B60",
"C. c #905F5F",
"Z. c #768F9F",
"A. c #303D3B",
"S. c #4A794B",
"D. c #417C9B",
"F. c #684946",
"G. c #257DA7",
"H. c #42525D",
"J. c #859194",
"K. c #8C8780",
"L. c #4F819D",
"P. c #2F4B5E",
"I. c #28506A",
"U. c #1E83B4",
"Y. c #4C4D50",
"T. c #A0978A",
"R. c #956B64",
"E. c #686763",
"W. c #617888",
"Q. c #9D9D9A",
"!. c #5F7178",
"~. c #5A9CBD",
"^. c #ADBBC0",
"/. c #97ABBA",
"(. c #AEC5CA",
"). c #9DC0CA",
"_. c #CFA7AB",
"`. c #205F7E",
"'. c #547152",
"]. c #71635D",
"[. c #3581A7",
"{. c #1E6B91",
"}. c #837170",
"|. c #795D59",
" X c #3E5B47",
".X c #425760",
"XX c #6A757C",
"oX c #92919D",
"OX c #407290",
"+X c #B7BBB4",
"@X c #8E9291",
"#X c #627480",
"$X c #7B738E",
"%X c #615875",
"&X c #A89A8E",
"*X c #8B9697",
"=X c #897E7A",
"-X c #3C91BA",
";X c #889DAB",
":X c #857763",
">X c #3B7048",
",X c #385466",
"<X c #275872",
"1X c #8D7D68",
"2X c #516554",
"3X c #273635",
"4X c #4F5B55",
"5X c #827B73",
"6X c #ADA294",
"7X c #5F5459",
"8X c #4B8CAE",
"9X c #BBC2BD",
"0X c #6C5857",
"qX c #305E77",
"wX c #9A96A7",
"eX c #998F81",
"rX c #8F8E8B",
"tX c #A3AFB2",
"yX c #6F6A6D",
"uX c #7B8996",
"iX c #7B93A2",
"pX c #A0B1B6",
"aX c #4D99BD",
"sX c #A3BA8C",
"dX c #A0927F",
"fX c #2B6582",
"gX c #89A48A",
"hX c #3A8BB3",
"jX c #AC7C62",
"kX c #656D4B",
"lX c #7B947D",
"zX c #94A2A8",
"xX c #9A938F",
"cX c #957E7E",
"vX c #794447",
"bX c #B0C49E",
"nX c #CC8F97",
"mX c #386255",
"MX c #938EA5",
"NX c #7F7E8F",
"BX c #8E9DA2",
"VX c #6383BD",
"CX c #568067",
"ZX c #8E8070",
"AX c #8A7EB9",
"SX c #75A3B6",
"DX c #917677",
"FX c #9EA29F",
"GX c #BAA2C0",
"HX c #CDC5CF",
"JX c #748572",
"KX c #D0C7B4",
"LX c #D2BFA2",
"PX c #6F808D",
"IX c #B1A792",
"UX c #D28536",
/* pixels */
"F 8                                                                                                                             ",
"F y                                                                                                                             ",
",                                                                                                                               ",
"                                                                                                                                ",
"                                    @ , , X                                                                                     ",
"                                  8 D.L.OXa.,                                                                                   ",
"                                @ D.G n.PXM.-.                                                                                  ",
"                                  D.c.XXi.XXl.,                                         @ @ @ @                                 ",
"                                @ D.4.uX4.V.,X,                                         k.:.OXy @                               ",
"                                @ G.E S z.p <X                                      @ y M.9 m ~ 8                     P   P     ",
"                                  , `.<.q <X(   P                             @ @     y | m d z y             @    . .+.+.u.-X@ ",
"                                  P X F qXy  .hX[.                            k.k.,   y V.9 m l.              -X+.$.u.).N : (.+.",
"      8 ,       , 8             U.[.hXhXL.k.8X8Xy                         X a.E.E.a.X G.V.m ' ,X,          .~.(.5 h # = # # h # ",
"      8 , F F ,   ,             8 `.qX;.L., , U.  @ X X X X @ , , , @     @ G.5Xm.G.X y z @.H qXP  .U.  @ aX$.h # # # # # # # # ",
"        ( F F {.F                 , F <Xz.F @ 8 G.k.a.a.( ( ;.o.,X<XG.P   @ y E.E.y P U.{ R.@.;.L.8Xy , @ +.# # # # # # # # # # ",
"      , ( `.( ( 8                   X ( I.fXL.3 J.G oX9.{ E w.1.i z :.D.U.U.G.~ ~ SX).t =XR.' l.-.-.VXVXU.-X$.# # # # # # # # # ",
"          8   ,                       8 l.m.G 2.n.9.XX4.4.~ z w.@.z.] P.OX8XD.~ ~ uXT T DXR.d W.-.OXAXAXy  .t = # # # # # # # # ",
"              8 ,                   8 ;.M./ %./ ^ V k o.~ l.I.v k ] <.w *.] H.#X4.{ %.U m m s uXL.OXSXu.+.aX(.# # # # # # # # # ",
"                                  G.l.z o.,.,.,.| g b V ] ,XP.W S...>.A.3Xq S { 4.4.%.Q.L L s uX;X$ =.a : j = # # # # # # # # # ",
"                                  -.B E S z z z k 3.S b 0 *.*. Xl l l ..x &.r r <.z.%.@Xc D c G /.y.x.9X2 + # # # # # # # # # # ",
"                                X fXV S *.B S V p b b b b A.&.S.l l l _ x W 1 <.I.I.W./ < 6 7 [ a tXIXLXKXN # # # # # # # # # # ",
"                              8 -.mXs.b Q Y.E.| k ].1X:X:Xj.2X_ _ l _ >XA n V z .XP.~ 7X) 7 < 9.! J sXsXbXN # # # # # # # # # # ",
"                              a.'.2Xm.K.eXdX6XT.T.&XdX1X1X:X'.p.x p.x C n C  X,.,.4X'.g.- - M yXJ 6.+XsXbX5 # # # # # # # # # # ",
"                            @ k.K.dX6X5.6X6X5.5.5.5.eX1X:X'.p._ >Xd.A W C `  XE V S.l >.p % % G J h.nXnX_.N # # # # # # # # # # ",
"                            @ k.ZX&X5.5.5.T.eXT.T.K.5X].k n d.d.` ` S..._ x A n A ..l _ W % Q gXx.h._._._._.# # # # # # # # # # ",
"                            @ -.ZX&XT.=Xm.| 3.3.k Q Q b w ; n C &.>.....l x C C A x p..._ >.A.JXx.=.GXHXh N # # # # # # h # # # ",
"                          , 8 qX5XE.0XQ w b H i i i @.7 ; ; w n &.>.x x x ` n n C d.p.l ....x 4X6.tX=.h.a : & = # # # + a & # # ",
"                        F {.{.] m R.9 d q.9 C.O.C.C.} S 0 g g w b q.].m I ' q.k 4Xd.x S.>X>X` 2XX.zXj + a & & = # + 5 j K & # # ",
"                        {.`.] 9 jXY e.C.C.cXDXO.O.m S I.v 9 I b z |.R.1.1.C.e.i |.kX>.A A A C lXT x.j a 5 5 5 # # j Z K K = # # ",
"                      ( `.I.i m F.V.%.c.} M./ } w.| :.| C.jXY v.i.c.O.O.1.O.O.1.R.jXkX` ` C W gXJ pXh.h.h.: # # : j + 5 & + # # ",
"                    @ ( <.r i d vXe.yXe.w.} D c H W.,.' 9 Y m 4XJ R 9 O.1.1.w.1.w.O.kXd.A n lX9XzX+.).h = + # # + + # # h # # # ",
"P   @                .[.l.z.Y.s vXvXL D @.d i V.~ $ ,.s d i '.l lXJ / q.q.@.v v 7Xi n ` W n J.=.zX$.& # # # # # # # # # # # # # ",
").u.-X            8 L.;.H.S v d | 7.7.eXrX=XR J %.$ M.i  XS.l l p.gXG #XE 0.o.H.0.E n n *.r %.tXG ! O # : & h # # # # # # # # # ",
"O = t ~.~.P @ @   8 ;.0.V B < H 9.FXQ.*X8.&XN + / :.E >.x _ _ p.x CXrX4.H.2X| S .XV 4 b v.B M.Q.C.cX2 h a e : : = # # # # # h # ",
"# # j t K u.+.-XP   y -.P.b f < 7.^ =X!.%.xX[ ! { A W &.C ` A d.A ` ^ 8.J.G oX9.^ o.*.] e.e.i q.w.w.&X+ h & K K Z + + # # 5 & + ",
"# # a $.= O O e ~.      {.v 7 7 c.R xX+X+Xm.v.Q 3XA.B k g.C ` ` C C W A mXo.^ / / / ,.0.W.!.{ { ^ H c.2 h = Z & Z e a # 5 K t Z ",
"# # # h # # # : ~.@     ( V.|.} }.cXi Y.p o * p p B o ) Q B A.&.&.&.&.g.Q 3X0 s.B v @.m }.| >.CXFX3.zXO # # # h $.K t j a K t t ",
"# # # # # # # h u. .@ X a.0XY 9 } D c > s.s.4 f - % - * > % p 3.z V p > k p 4 4 > 6 s q.7Xj.W  X9.W.J O # # # # + 5 j e K : : Z ",
"# # # # # # # + e aXy k.;.m } 9 F.L f.D D 7 M M - % % % > % - - - % o > > B p o g * p i 3.m @.V.XXJ.= # # # # # # # # + a 5 h h ",
"h # # # # # # # = u.fXv |.Y 9 Y ' d D L L s 6 < M - % % > % % % % % * > % % p B B p p H o u | X.t (.O # # h h # # # # # # # # # ",
"a = # # # # # # O ).;.6 H i v i 0X' I I c F.7Xk u f - % > > % % % % > > % % % - % o * v.q w Y.2 (.$.O # h T 6.# # # # # # # # # ",
"K Z + # # # # h . & /.,.Q v.p s.o M F.m D d ,./ Y.f f - % > % % % % > % % % % % - o > % - 1 p *X[ @X[ = # MXN.+ h # # # # # # # ",
"= a & # # # h R K.BXBXi.i I F.< ; g s f.D s z V z V B - - > % % % % > % % % % % * * % % % - q *.z.Q / wXX.r.#.J X.h # # # # # # ",
"# + = # # # . c.M ] P.<.v f.L c u u s L 6 6 v k z 3.b o - * - - - - * % % % % % * % % % % % o g v.@XN.b.[ t.t.$X! N # # # # # # ",
"# # # # # + = @X3.V H.3.H L f.6 M 7 6 6 6 c s M f f ; u 6 < o o * o o - % % - * - % % % % * u k G 2.r.t.N.$X#.r.N.n.= # # # # # ",
"# # # # # : e ^.! X.X.U i D D 6 7 6 ) < 7 ) M g s ' ' d s s u g f f o o * o o o % % % % * u Y.J 5 #.r.#.6.! J t.t.N.N # # # # # ",
"# # # # # # & Z e + . U c c 6 7 < g 4 * u ) 0 o I Y 9 9 d c < 7 u g g u f < * o - o o o o 1 E G 2 X.! 5 # 6.n.#.2.T # # # # # # ",
"# # # # # # h = & + h 2 7.* % * M 4 q 4 4 o q o F.9 9 Y ' < < 7 7 7 < < ) 7 g H v > f 6 > r <.P.E !.#X*X9.%X%Xr.$XU h # # # # # ",
"# # # # # # & $.# # # . @X< < M s.q q 4 0 w 1 o D I } I ' u f u g M M < 6 g H 9 Y m 6 6 7.%.M.!.8.8.0.0.] ^ t.r.J 5 # # # # # # ",
"# # # # = j e : # # # O J.*.q *.r 0 4 0 1 0 1 s.s f.d ) H o ; w ; ; ; w 1 ; v Y 9 9 @.7.2 . N R n.n.2.6.R oXr.b.MXX.h # # # # # ",
"h + # + Z t t a = # h j Z.:.<.1 0 4 4 r r q q r v.L 6 c < 0 1 q 0 w w 1 1 f c I f.I I e.+XO + 9XN.%X#.wXoXb.%Xn.2.X.h # # # # # ",
"a Z a a K e t /./.^.^.iX$ B.{ ] 1 1 q r r q q q 1 M g 7 ) ; 4 0 w 4 w w ; ; ) L f.L q.|.+XO h T $Xb.t.NXt.#.b.2.. h # # # # # # ",
"t t t e $.= a /.Z.Z.iX$ $ $ $ i.~ S q r r 1 0 r r w g s c g ; 4 1 4 4 w ; ; u s D v 7.T # # + wX#.#.%Xr.b.wXoXU h # # # # # # # ",
"a Z K e + h 2 ;X3 $ $ $ $ $ $ $ $ i.H.z.*.1 q q r p f ) 6 c ) g ; 1 q 1 4 ; ; Q yXQ.0XrX# O # 2 5 T $XNXb.2.h N # # # # # # # # ",
"h # : a + h + pX3 $ $ $ $ $ $ $ $ $ B.i.#XE s.S :.i.E 3.3.v.v d k ^ .XS V ; o G # O [ i K.R 5 . O + N.U 2.T h # # # # # # # # # ",
"# # # h h a a ^.3 $ $ $ $ $ $ $ $ $ $ $ $ $ ~ 0.3 3 x.T 6.U [ xX}.e.j.j.K.8.B *X2 . 2 =Xm.yXm.rXT 2 [ ! . h # # # # # # # # # # ",
"# # # = =.iXZ.3 $ $ $ $ $ $ $ $ $ $ $ $ $ $ ~ z..X!.tXO . O O O 2 [ i d }.T J..X#X9.J 2 5 J Q.7.j.j.].R h # # # # # # # # # # # ",
"# # h 2 iXB.$ $ $ $ $ $ $ $ $ $ $ $ $ $ $ $ i.:.:.{ ^ 8.*X8.R O h O 6.].}.R = T 6.*X^ XX{ ^ 2 N Q.k j.R O # # # # # # # # # # # ",
"# # O j Z.$ $ $ $ $ $ $ $ $ $ $ $ $ $ $ $ $ $ $ y.t h.U !.S U O # # O U c.2 h h O O 5 =.8.,.9Xh O [ 5XX.h # # # # # # # # # # # ",
"# # =.y.$ $ $ $ $ $ $ $ $ $ $ $ $ $ $ $ $ Z.y.x.j Z e : 2 G U h # # # O X.= # # # # # O N ! + # # N ! 5 # # # # # # # # # # # # ",
"O 5 y.B.$ $ $ $ $ $ $ $ $ $ $ $ $ $ $ $ y.j 5 # h = & a # h N # # # # # h # # # # # # # # h # # # # h # # # # # # # # # # # # # ",
"pX;X$ $ $ $ $ $ $ $ $ $ $ $ $ $ $ $ 3 ;X=.O # # # # # # # # # # # # # # # # # # # # # # # # # # # # # # # # # # # # # # # # # # ",
"B.B.$ $ $ $ $ $ $ $ $ $ $ $ $ $ $ $ $ /.a # # # # # # # # # # # # # # # # # # # # # # # # # # # # # # # # # # # # # # # # # # # ",
"$ $ $ $ $ $ $ $ $ $ $ $ $ $ $ $ $ $ $ =.O # # # # # # # # # # # # # # # # # # # # # # # # # # # # # # # # # # # # # # # # # # # "
};
