/* XPM */
static char *fe1630de57cc41bb862ef9abc93631d0Ku3af4oBGTI0F0ZV[] = {
/* columns rows colors chars-per-pixel */
"64 64 256 2 ",
"   c #826DB8",
".  c #836EB9",
"X  c #DB9062",
"o  c #DC956A",
"O  c #A380B1",
"+  c #B1809A",
"@  c #E3A37C",
"#  c #D88F62",
"$  c black",
"%  c #987DC1",
"&  c #D99062",
"*  c #DB9367",
"=  c #846FB9",
"-  c #E3A27A",
";  c #8973BB",
":  c #DE996F",
">  c #E09E75",
",  c #1F0E29",
"<  c #DF9C72",
"1  c #8771BA",
"2  c #967BC0",
"3  c #E1A078",
"4  c #222619",
"5  c #2F142B",
"6  c #9D7EBA",
"7  c #A280B4",
"8  c #DD976C",
"9  c #3B1B2D",
"0  c #2A2F1E",
"q  c #1C1633",
"w  c #9077BD",
"e  c #2D3221",
"r  c #9A7DBF",
"t  c #B0819D",
"y  c #8C74BD",
"u  c #18112D",
"i  c #25211D",
"p  c #190D26",
"a  c #393652",
"s  c #9A7EC2",
"d  c #4C4069",
"f  c #DA9165",
"g  c #8E72B3",
"h  c #482531",
"j  c #262A1B",
"k  c #2C2522",
"l  c #463930",
"z  c #9479BF",
"x  c #302C4C",
"c  c #321731",
"v  c #201526",
"b  c #E6A47D",
"n  c #1D2015",
"m  c #211A3A",
"M  c #AE80A0",
"N  c #725688",
"B  c #7B5D8C",
"V  c #58385B",
"C  c #CB8E71",
"Z  c #D58D61",
"A  c #A66F53",
"S  c #3A3128",
"D  c #5E4976",
"F  c #B57B58",
"G  c #8D6FA2",
"H  c #84524C",
"J  c #A480AF",
"K  c #A681AD",
"L  c #9A7CBB",
"P  c #86607E",
"I  c #291327",
"U  c #211131",
"Y  c #80639C",
"T  c #191A13",
"R  c #5B323A",
"E  c #A982A9",
"W  c #836AA4",
"Q  c #695182",
"!  c #E2E152",
"~  c #BB7D5F",
"^  c #583149",
"/  c #56456F",
"(  c #7D68AD",
")  c #D08A60",
"_  c #22191D",
"`  c #729278",
"'  c #9673AD",
"]  c #CB8760",
"[  c #271C28",
"{  c #3C4E5F",
"}  c #9DB46E",
"|  c #D28F6A",
" . c #784F4A",
".. c #D19888",
"X. c #382843",
"o. c #352930",
"O. c #4E424A",
"+. c #B07459",
"@. c #D49674",
"#. c #271430",
"$. c #816BB4",
"%. c #AC8C7E",
"&. c #896EAD",
"*. c #BDCA63",
"=. c #C1A69F",
"-. c #A18EC6",
";. c #C9CF5D",
":. c #9478B6",
">. c #D99C79",
",. c #40365E",
"<. c #542A44",
"1. c #633B44",
"2. c #49233D",
"3. c #9D7CA8",
"4. c #C3815E",
"5. c #C18562",
"6. c #54453D",
"7. c #70523E",
"8. c #966A4E",
"9. c #B9856A",
"0. c #65507B",
"q. c #5C4846",
"w. c #463A3E",
"e. c #896A8C",
"r. c #341B36",
"t. c #2C374A",
"y. c #8EA872",
"u. c #A5795F",
"i. c #614A39",
"p. c #8D6649",
"a. c #B3616D",
"s. c #5D344F",
"d. c #8D5B4D",
"f. c #BF8684",
"g. c #704953",
"h. c #664564",
"j. c #754C6D",
"k. c #9B725A",
"l. c #6A5572",
"z. c #678278",
"x. c #C7897D",
"c. c #B88895",
"v. c #9C82C4",
"b. c #966F78",
"n. c #7861A3",
"m. c #805B42",
"M. c #A8485E",
"N. c #BAB0DA",
"B. c #B64B5F",
"V. c #4D4034",
"C. c #936761",
"Z. c #74584C",
"A. c #B7828F",
"S. c #3E2035",
"D. c #6E6691",
"F. c #885D6B",
"G. c #CE9082",
"H. c #A06D5D",
"J. c #D4AA84",
"K. c #45566F",
"L. c #726176",
"P. c #AAB565",
"I. c #3D343C",
"U. c #ADBE6A",
"Y. c #AC999B",
"T. c #D6D857",
"R. c #803F5C",
"E. c #953D58",
"W. c #CBB6A2",
"Q. c #AC82A3",
"!. c #A277B8",
"~. c #64514B",
"^. c #673D51",
"/. c #745C58",
"(. c #A16494",
"). c #866150",
"_. c #945C50",
"`. c #65405B",
"'. c #C1947E",
"]. c #A05E81",
"[. c #D5B9BA",
"{. c #B36D94",
"}. c #BBBE5C",
"|. c #9AA066",
" X c #7B6B78",
".X c #857368",
"XX c #8A6F5C",
"oX c #5D515C",
"OX c #A3686D",
"+X c #8A4B6C",
"@X c #A385A3",
"#X c #577B75",
"$X c #CC5365",
"%X c #775C96",
"&X c #A080BB",
"*X c #CD75A1",
"=X c #AD8065",
"-X c #CF8ECE",
";X c #AC9CD0",
":X c #C9C1E3",
">X c #8D6056",
",X c #272235",
"<X c #312141",
"1X c #C48F93",
"2X c #B78C89",
"3X c #6E5855",
"4X c #525551",
"5X c #9E908F",
"6X c #926F93",
"7X c #7D5579",
"8X c #C2A788",
"9X c #723756",
"0X c #9E7895",
"qX c #A47584",
"wX c #776353",
"eX c #626F6E",
"rX c #84A77A",
"tX c #49707A",
"yX c #B58298",
"uX c #9E80BD",
"iX c #8B649E",
"pX c #A885C0",
"aX c #1A151F",
"sX c #BB82C2",
"dX c #7D3E46",
"fX c #9786B9",
"gX c #846495",
"hX c #715260",
"jX c #5E6161",
"kX c #BAA0B6",
"lX c #728B67",
"zX c #A39B52",
"xX c #CD786C",
"cX c #D1C986",
"vX c #838F5F",
"bX c #B18DC8",
"nX c #A2B0B3",
"mX c #9587AC",
"MX c #AB7B96",
"NX c #BC8E6E",
"BX c #848892",
"VX c #AAA27D",
"CX c #6D725C",
"ZX c #AF7978",
"AX c #7D5A51",
"SX c #C7BC6F",
"DX c #91886C",
"FX c #D16E77",
"GX c #A672AD",
"HX c #B5CFC1",
"JX c #9D9EB5",
"KX c #BA7AC1",
"LX c #849082",
"PX c #DFD4A2",
"IX c #B48EB1",
"UX c #83906A",
/* pixels */
"$ $ $ $                   1 =                                                                                     . . y $ $ $ $ ",
"$ $ $ $                   ; 1   . =                                                                                     $ $ $ $ ",
"$ $ $ $           = z .         = w .                                           . 1                           1 .       $ $ $ $ ",
"$ $ $ $           . ; .           .                                             = ;                           ; =       $ $ $ $ ",
"$ $ $ $                                                 = .                                                             $ $ $ $ ",
"$ $ $ $                     1 .                       . 1                                                               $ $ $ $ ",
"$ $ $ $     = y w y =   1 w 2 ;             y v.;     1 1     ; .                                                       $ $ $ $ ",
"$ $ $ $ = y z % % % z w 2 % % z 1         ; bXbX!.$.  ; =     1 .         . w =     . g G (       ; ;                   $ $ $ $ ",
"$ $ $ $ 1 2 % % % % % % % % % % 2 y =     y pXpX' (   = =                 . ; .     Y F.g.h.n..   . .     = ;           $ $ $ $ ",
"$ $ $ $ ; y 2 % % % % % % % % % % % 2 y   1 Y Q Q ( w ;         . .                 Y `.s.V n..           1 ;     =     $ $ $ $ ",
"$ $ $ $ % % % % % % % % % % % % % % % 2 w w Q / D g % 1       . 1 .                 N g.s.V n..                 . ;     $ $ $ $ ",
"$ $ $ $ 6 6 6 6 % % % % % % % % % % % % % % 2 &.:.s z .     . w = . =       .     . Y F.^.V $.$.(       .         1 =   $ $ $ $ ",
"$ $ $ $ O O O 7 r % % % % % % % % % % % s s s 6 r % z 1     ; 2 ; w z y = $.(     $.7Xj.`.h.( W Y W               ; 1   $ $ $ $ ",
"$ $ $ $ O O O 7 r % % % % % % % % % % % 6 L uX&Xr % % w = ; 2 % % % r % 1 D.K.( .   N ^.<.V Y W n.( g g g               $ $ $ $ ",
"$ $ $ $ O O O 7 r % % % % % % % % % % % &.W &.:.uXs % 2 2 2 % % !.(.iXg w D.{ n.. . Y C.^ D $.  $.iX*X*XGX              $ $ $ $ ",
"$ $ $ $ O O O O 6 % % % % % % % % % % % % 2 g %X%XL L :.&.Y %XN ].].gX' v.D.d       B >X^ Q .   ( iX*X*X'               $ $ $ $ ",
"$ $ $ $ O O O O O 6 % % % % % % % % % % % % 6 G %XG gXB B N Q D h.P ' B ' W 0.w =   N g.<.N . = $.' !.!.!.;             $ $ $ $ ",
"$ $ $ $ O O O O O 7 r % % % % % % % % % % 6 7 7 Y B B 0./ D 0.D d d D a B ' G &Xr ; N ^.<.n.1 z g sX-X-X-Xw   ; ;       $ $ $ $ ",
"$ $ $ $ O O O O O O 6 % % % % % % % % % % &XO G B B B ,.d ,.,./ ,.a x a N G ' 6 pXw j.^ 2.W % s &.sX-XsXKXz   = = = .   $ $ $ $ ",
"$ $ $ $ J O O O O O 6 % % % r % % % % % r W Q D N N Q / d x a jXa a x x / D D 0.W :.7X^.^ W s % &.L s r z =       2 ;   $ $ $ $ ",
"$ $ $ $ Q.J O O O O 7 L r L 7 r % % % % :.d d a 0.N Q d x 4X|.P.4Xx x x d B Q / N G `.^ s.Y s % G Q.7 w           y ;   $ $ $ $ ",
"$ $ $ $ M J O O O O O O 7 O O 7 L r % % g / x x / Q 0.l. X}.T.*.z.d ,.a / 0.D d L.:.j.s.V :.% 2 G 2X'.c.g               $ $ $ $ ",
"$ $ $ $ J O O O O O O O O O O O O 7 6 r ' d x oXL.%.2Xf.%.! ! U.` l.D /  Xl..XzX;.U..X^ V z s w mXkXc.'.3.              $ $ $ $ ",
"$ $ $ $ O O O O O O O O O O O O O O O Y.LX X%.J.'.'.G.'.}.! ;.y.z.K.l..X;.|.;.! ! *.|.q.l.s s g JXHXfX7 r y         . . $ $ $ $ ",
"$ $ $ $ O O O O O O O O O O O O O O O 5Xy.VXJ.J...G.%.*.} ;.y.#X#X|.P.}.T.;.U.! ! *.} }.P.mX% &.nXnX% % % % ;       . . $ $ $ $ ",
"$ $ $ $ O O O O O O O O O O O O E E Q.=.8X8XJ.G.f.b.jXlXrXy.#XtX} ! } z.P.! T.! T.*.} ` ` BXz g -.-.% % % % z =         $ $ $ $ ",
"$ $ $ $ O O O O O O O O O E E Q.+ + + J.J.VXXX6.X.^ 1.w.a { K.#Xy.;.U.` U.*.rXrX} P.z.K.{ D.g -.:XN.;Xv.% % % y         $ $ $ $ ",
"$ $ $ $ J O O O O O O K M + t t + +  X%.XXw.S.<.R.ZXa.M.2.c E.a.9.+.a.OXDXy.tXtXtXK.{ { a G &.-.:X:X:XN.-.% % 2 =       $ $ $ $ ",
"$ $ $ $ E O O O O O J M + + + t MXL.t.w.6.AXOXa.a...a.R.1.I.`.B.$X$Xa.qXP eX{ CXvX{ a t.oXf.G ;XN.N.N.N.-.% % 2 =       $ $ $ $ ",
"$ $ $ $ M K O O O K Q.+ + + + A.L.t.I.8.k.H.=.].E.B.dXH k.q.0.7XB.$XFX1X].j.vXT.} { x oXC | qXfXfX-.;X;Xv.% % 2 y ; ; . $ $ $ $ ",
"$ $ $ $ + M J O K t + + + yX..3 wXt. .8._.$XFXB.E.9Xg.7.q.I.b.@X0XE.B.$XM.M.4.P.` { a .X> ~ b.D.W L v.-.% % % % % % % y $ $ $ $ ",
"$ $ $ $ + + M Q.M + + + c...> : XXt.wXH.M.M.OX%.Y.F.b.Z.wXzXT.cX[.6XP +XR.+X+XhX{ a t.oX@.9.G.2X@X7 r % % % % % % % % 2 $ $ $ $ ",
"$ $ $ $ + + + + + + + + G.8 # 9.DXjXXXk.2X=.W.W.BXb.%.zX}.! *.*.=.IX6Xe.P 3.3.h.4Xa t.k.C C xXxX..K 7 L % % r 6 % % % % $ $ $ $ ",
"$ $ $ $ + + + + + + + c.@.& # =XCX4XwXNX5XW.Y.W.5XqXSX*.;.U.rX` z.Y.Y.kX@X@Xe. X.Xg.s.+.~ xXB.M.G.E O O 6 6 O O 6 % % % $ $ $ $ ",
"$ $ $ $ + + + + + + + ..> & # Z p.V.w.).=.W.W.8X%.b.SX} ` ` ` #Xy.cXPXcX[.[.kX@Xh.9X9XR.E.M.E.E.a.1XJ O O O O O O 7 6 6 $ $ $ $ ",
"$ $ $ $ + + + + + + c.>.o # # # f A h S.3X~.w.o.[ O.=.=.=.=.Q.z.y.;.} } |.7Xe.6XB e.l.L.vXeXl.h.OX..K O O O O O O O 7 O $ $ $ $ ",
"$ $ $ $ + + + + + + ..@ : & & & ) d.h 9 9 #.v i i o.5X[.[.=.b.L.eX` eXlXoXV V j.(.{.{.A.lXz.3.P >.@.K O O O O 3.J O O O $ $ $ $ ",
"$ $ $ $ + + + + + t G.3 3 4.] 4._.R 9 h h c 9 _ 4 e S V.~.l e hXR.+X+XR.P 0X0X0X(.(.{.{.qXe.D.e.>.| M O O 3.3.e.3.O O O $ $ $ $ ",
"$ $ $ $ + + + + + + x.* @.1.dXH H H 1.R 9 9 R 2.X.j e 0 4 n T e 6.q.3X^.h.O.O.6Xe.j.].(.{.P K.%.: # A.7 7 P P P J O O O $ $ $ $ ",
"$ $ $ $ + + + + + + A.f @.1.5 9 h R dXR 9 h R X.d a j e e 4 T 4 e e e e 0 n 0 O.X.r.X.V F.OX/.| & # 1XE J j._.F.E O O O $ $ $ $ ",
"$ $ $ $ + + + + + + + C 8 H.h 9 5 I I 9 ^ 1.h q ,.,.,X4 e 0 T 4 e e e 0 n 4 e e k [ [ o.8.7.8.& # f 3 ZXC.H d.C.E O O O $ $ $ $ ",
"$ $ $ $ + + + + + + A.9.4.5.>X<.2.S.5 c ^ <.h v U x d X.4 j T n 0 0 0 4 n e e e e j j 4 j j A X & < 3 g.H 4._.6X7 O O O $ $ $ $ ",
"$ $ $ $ + + + + + + F.`.V V V s.9X<.5 c 2.2.S., p [ a ,.v T i T _ _ n T j e e 0 j n n j 0 0 V.p.F C 5.d.5.f Z x.Q.O O O $ $ $ $ ",
"$ $ $ $ + + + + + MXV <XX.<XX.2.<.2.c #.r.9 5 , v V.w.#.[ [ l I 5 p , p aXi j 4 n 4 0 e e 0 j 4 j S S d.H.H +.] f.K O O $ $ $ $ ",
"$ $ $ $ + + + + + + P hXAX .g.^ S.S.9 9 9 5 #.p [ q.q.k 6.o.v I 5 p , , , , v T j 0 0 j 4 n 4 l ).F d.R  .R _.d.~ C t O $ $ $ $ ",
"$ $ $ $ + + + + yX1Xc.C & # #  .h h h 9 c 5 I p v k k k S i p , 9 5 5 5 I 5 I p k S i _ h Z.=X>.- o | A ] +.# Z Z & C Q.$ $ $ $ ",
"$ $ $ $ + + + f.| : < # # f & H r.r.r.c c 5 , p , _ V.S ~.k [ , I 5 5 5 5 5 , _ S l i o.H.@ b @ 3 8 9.H F A F Z # # C yX$ $ $ $ ",
"$ $ $ $ + + c.x.# * : f * 3 o ] R r.9 9 c U , , , [ l S l i o.v , , , , I , I _ k 6.i V.u.3 @ @ @ - H.>X~ 4. .A & # | A.$ $ $ $ ",
"$ $ $ $ x.f...>.# # f f # * 8 o  .c c c #.U #.U , v k S i aXv p p u q m u p , v i k T S 6.u.b @ @ @ @ >. .~ ~ H ) & x.+ $ $ $ $ ",
"$ $ $ $ 8 : o f # # # # # # f < ~ 1.r.U #.#.U U U , _ i k q q q m q u u m q q ,XT n i V.i.u.b @ @ @ b u.C.o & A +.& | x.$ $ $ $ ",
"$ $ $ $ 3 > & # # # # # # # # o - o d.1.r.U m U U m X.m k [ q q m q m q u u q k n l l 5.@.>.@ @ @ - 3 =X>.- * Z ) & & # $ $ $ $ ",
"$ $ $ $ 3 o # f # # # # # # # f 3 3 f # A 1. . .<Xm C.C.l k q q m q u u p u m aXS l i.5.: o : > 3 > : < < > f # & : : # $ $ $ $ ",
"$ $ $ $ f # 8 8 # # # # # # # f 3 @ o # & # # Z +.q.A 8 p.7.6.o.u v u u u q u q /.C u.p.- > f # f o & # # f : < < - 3 f $ $ $ $ ",
"$ $ $ $ # # * o # # # # # # # # < @ 8 # # & & & ] O.O.k.] * ) 8.7.i.Z.O.m u q ,Xq.@.@.7.9.@ o # # # * : : > - @ @ @ - o $ $ $ $ ",
"$ $ $ $ # # # f # # # # # # # o - @ 3 < f # # & ] ).A AXZ.A 4.k.) F 8.7.6.,Xo.I.9.b - k.i.] X & * o - @ @ 3 o o > @ @ - $ $ $ $ ",
"$ $ $ $ # # * > : # # # f o 8 3 - @ @ @ < & f * & & & & F ~.I.O.9.@ : F m.l i.I./.@ 8 F 7.7.A | < | ~ > : f # # f < - @ $ $ $ $ ",
"$ $ $ $ # # 8 3 o # # # f 3 @ : f o < @ @ > 3 o # * 8 o 8 ) ).w.u.b @ - o m.8.3XO.XX| f * +.p.p.m.i.m.Z # # # # # # : @ $ $ $ $ ",
"$ $ $ $ * o 8 3 > > > o f 3 - o # # o @ @ @ < # f 3 @ @ @ < : NX=X3 @ @ b C u.5.F AX3X5.~ ).F ] m.l i.+.& # # # # # f > $ $ $ $ ",
"$ $ $ $ < 3 - @ @ @ @ - 8 < - o # # f < > - o # < @ @ @ @ @ - b b @ @ @ : 8 * # * : 8.w.o.~.) & # +.p.) # # # # # # # & $ $ $ $ ",
"$ $ $ $ f * o : 3 @ @ @ @ : > : # # # # f > 3 < > > > - @ @ @ @ @ @ @ : # # # # f o & m.,X/.~ & # & F ] & # # # # # # # $ $ $ $ ",
"$ $ $ $ # # # # o @ @ @ @ 3 - : # # # # # o > o # f # o 3 @ @ @ @ @ < # # # # # f * & ) Z./.Z # # # & # # # # # # # # # $ $ $ $ ",
"$ $ $ $ # # # # & 8 < > - @ - * # # # f # # # # # # # # o - @ - : o f # # # # # # f # & ) >X4.& # # # # # # # # # # # # $ $ $ $ ",
"$ $ $ $ # # # # # # # # o > 3 * # # # # # # # # # # # # : @ @ : # # # # # # # # # # # # & & # # # # # # # # # # # # # # $ $ $ $ ",
"$ $ $ $ * # # # # # # # # f * f # # # # # # # # # # # # > @ - * # # # # # # # # # # # # # # # # # # # # # # # # # # # # $ $ $ $ "
};
