/* XPM */
static char *result[] = {
/* columns rows colors chars-per-pixel */
"64 64 6 1 ",
"  c #FF763E",
". c #528C26",
"X c #FB9064",
"o c #89E047",
"O c #E1F7D5",
"+ c #F8EAEA",
/* pixels */
"OOOOOOOOOOOOOOOOOOOOOOOOOOOOOOOOOOOOOOOOOOOOOOOOOOOOOOOOOOOOOOOO",
"OOOOOOOOOOOOOOOOOOOOOOOOOOO...OOOOOOOOOOOOOOOOOOOOOOOOOOOOO...OO",
"OOOOOOOOOOOOOOOOOOOOOOOOOOO.oo..OOOOOOOOOOOOOOOOOOOOOOOOOOO.oo..",
".OOOOOOOOOOOOOOOOOOOOOOOOOO.oooo.OOOOOOOOOOOOOOOOOOOOOOOOOO.oooo",
"o.OOOOOOOOOOOOOOOOOOOOOOOOOO.oooo.OOOOOOOOOOOOOOOOOOOOOOOOOO.ooo",
"o.OOOOOOOOOOOOOOOOOOOOOOOOOOO.ooo.OOOOOOOOOOOOOOOOOOOOOOOOOOO.oo",
"o    OOOOOOOOOOOOOOOOOOOOOO     o    OOOOOOOOOOOOOOOOOOOOOO     ",
" XXXX OOOOOOOOOOOOOOOOOOOO XXXXX XXXX OOOOOOOOOOOOOOOOOOOO XXXXX",
"X XXXX OOOOOOOOOOOOOOOOOO XXXXXXX XXXX OOOOOOOOOOOOOOOOOO XXXXXX",
"X XXXXX OOOOOOOOOOOOOOOO XXX++XXX XXXXX OOOOOOOOOOOOOOOO XXX++XX",
"XX XXXX OOOOOOOOOOOOOOOO XX++XXXXX XXXX OOOOOOOOOOOOOOOO XX++XXX",
"XX XXXX OOOOOOOOOOOOOOOO XX+XXXXXX XXXX OOOOOOOOOOOOOOOO XX+XXXX",
"XXXXXXX OOOOOOOOOOOOOOOO XXXXXXXXXXXXXX OOOOOOOOOOOOOOOO XXXXXXX",
"XXXXXXX OOOOOOOOOOOOOOOO XXXXXXXXXXXXXX OOOOOOOOOOOOOOOO XXXXXXX",
"XXXXXXX OOOOOOOOOOOOOOOO XXXXXXXXXXXXXX OOOOOOOOOOOOOOOO XXXXXXX",
"XXXXXXX OOOOOOOOOOOOOOOO XXXXXXXXXXXXXX OOOOOOOOOOOOOOOO XXXXXXX",
"XXXXXX OOOOOOOOOOOOOOOOOO XXXXXXXXXXXX OOOOOOOOOOOOOOOOOO XXXXXX",
"XXXXX OOOOOOOOOOOOOOOOOOOO XXXXXXXXXX OOOOOOOOOOOOOOOOOOOO XXXXX",
"XXXX OOOOOOOOOOOOOOOOOOOOOO XXXXXXXX OOOOOOOOOOOOOOOOOOOOOO XXXX",
"    OOOOOOOOOOOOOOOOOOOOOOOO        OOOOOOOOOOOOOOOOOOOOOOOO    ",
"OOOOOOOOOOOOOOOOOOOOOOOOOOOOOOOOOOOOOOOOOOOOOOOOOOOOOOOOOOOOOOOO",
"OOOOOOOOOOOOOOOOOOOOOOOOOOOOOOOOOOOOOOOOOOOOOOOOOOOOOOOOOOOOOOOO",
"OOOOOOOOOOOOOOOOOOOOOOOOOOO...OOOOOOOOOOOOOOOOOOOOOOOOOOOOO...OO",
"OOOOOOOOOOOOOOOOOOOOOOOOOOO.oo..OOOOOOOOOOOOOOOOOOOOOOOOOOO.oo..",
".OOOOOOOOOOOOOOOOOOOOOOOOOO.oooo.OOOOOOOOOOOOOOOOOOOOOOOOOO.oooo",
"o.OOOOOOOOOOOOOOOOOOOOOOOOOO.oooo.OOOOOOOOOOOOOOOOOOOOOOOOOO.ooo",
"o.OOOOOOOOOOOOOOOOOOOOOOOOOOO.ooo.OOOOOOOOOOOOOOOOOOOOOOOOOOO.oo",
"o    OOOOOOOOOOOOOOOOOOOOOO     o    OOOOOOOOOOOOOOOOOOOOOO     ",
" XXXX OOOOOOOOOOOOOOOOOOOO XXXXX XXXX OOOOOOOOOOOOOOOOOOOO XXXXX",
"X XXXX OOOOOOOOOOOOOOOOOO XXXXXXX XXXX OOOOOOOOOOOOOOOOOO XXXXXX",
"X XXXXX OOOOOOOOOOOOOOOO XXX++XXX XXXXX OOOOOOOOOOOOOOOO XXX++XX",
"XX XXXX OOOOOOOOOOOOOOOO XX++XXXXX XXXX OOOOOOOOOOOOOOOO XX++XXX",
"XX XXXX OOOOOOOOOOOOOOOO XX+XXXXXX XXXX OOOOOOOOOOOOOOOO XX+XXXX",
"XXXXXXX OOOOOOOOOOOOOOOO XXXXXXXXXXXXXX OOOOOOOOOOOOOOOO XXXXXXX",
"XXXXXXX OOOOOOOOOOOOOOOO XXXXXXXXXXXXXX OOOOOOOOOOOOOOOO XXXXXXX",
"XXXXXXX OOOOOOOOOOOOOOOO XXXXXXXXXXXXXX OOOOOOOOOOOOOOOO XXXXXXX",
"XXXXXXX OOOOOOOOOOOOOOOO XXXXXXXXXXXXXX OOOOOOOOOOOOOOOO XXXXXXX",
"XXXXXX OOOOOOOOOOOOOOOOOO XXXXXXXXXXXX OOOOOOOOOOOOOOOOOO XXXXXX",
"XXXXX OOOOOOOOOOOOOOOOOOOO XXXXXXXXXX OOOOOOOOOOOOOOOOOOOO XXXXX",
"XXXX OOOOOOOOOOOOOOOOOOOOOO XXXXXXXX OOOOOOOOOOOOOOOOOOOOOO XXXX",
"    OOOOOOOOOOOOOOOOOOOOOOOO        OOOOOOOOOOOOOOOOOOOOOOOO    ",
"OOOOOOOOOOOOOOOOOOOOOOOOOOOOOOOOOOOOOOOOOOOOOOOOOOOOOOOOOOOOOOOO",
"OOOOOOOOOOOOOOOOOOOOOOOOOOOOOOOOOOOOOOOOOOOOOOOOOOOOOOOOOOOOOOOO",
"OOOOOOOOOOOOOOOOOOOOOOOOOOOOOOOOOOOOOOOOOOOOOOOOOOOOOOOOOOOOOOOO",
"OOOOOOOOOOOOOOOOOOOOOOOOOOO...OOOOOOOOOOOOOOOOOOOOOOOOOOOOO...OO",
"OOOOOOOOOOOOOOOOOOOOOOOOOOO.oo..OOOOOOOOOOOOOOOOOOOOOOOOOOO.oo..",
".OOOOOOOOOOOOOOOOOOOOOOOOOO.oooo.OOOOOOOOOOOOOOOOOOOOOOOOOO.oooo",
"o.OOOOOOOOOOOOOOOOOOOOOOOOOO.oooo.OOOOOOOOOOOOOOOOOOOOOOOOOO.ooo",
"o.OOOOOOOOOOOOOOOOOOOOOOOOOOO.ooo.OOOOOOOOOOOOOOOOOOOOOOOOOOO.oo",
"o    OOOOOOOOOOOOOOOOOOOOOO     o    OOOOOOOOOOOOOOOOOOOOOO     ",
" XXXX OOOOOOOOOOOOOOOOOOOO XXXXX XXXX OOOOOOOOOOOOOOOOOOOO XXXXX",
"X XXXX OOOOOOOOOOOOOOOOOO XXXXXXX XXXX OOOOOOOOOOOOOOOOOO XXXXXX",
"X XXXXX OOOOOOOOOOOOOOOO XXX++XXX XXXXX OOOOOOOOOOOOOOOO XXX++XX",
"XX XXXX OOOOOOOOOOOOOOOO XX++XXXXX XXXX OOOOOOOOOOOOOOOO XX++XXX",
"XX XXXX OOOOOOOOOOOOOOOO XX+XXXXXX XXXX OOOOOOOOOOOOOOOO XX+XXXX",
"XXXXXXX OOOOOOOOOOOOOOOO XXXXXXXXXXXXXX OOOOOOOOOOOOOOOO XXXXXXX",
"XXXXXXX OOOOOOOOOOOOOOOO XXXXXXXXXXXXXX OOOOOOOOOOOOOOOO XXXXXXX",
"XXXXXXX OOOOOOOOOOOOOOOO XXXXXXXXXXXXXX OOOOOOOOOOOOOOOO XXXXXXX",
"XXXXXXX OOOOOOOOOOOOOOOO XXXXXXXXXXXXXX OOOOOOOOOOOOOOOO XXXXXXX",
"XXXXXX OOOOOOOOOOOOOOOOOO XXXXXXXXXXXX OOOOOOOOOOOOOOOOOO XXXXXX",
"XXXXX OOOOOOOOOOOOOOOOOOOO XXXXXXXXXX OOOOOOOOOOOOOOOOOOOO XXXXX",
"XXXX OOOOOOOOOOOOOOOOOOOOOO XXXXXXXX OOOOOOOOOOOOOOOOOOOOOO XXXX",
"    OOOOOOOOOOOOOOOOOOOOOOOO        OOOOOOOOOOOOOOOOOOOOOOOO    ",
"OOOOOOOOOOOOOOOOOOOOOOOOOOOOOOOOOOOOOOOOOOOOOOOOOOOOOOOOOOOOOOOO"
};
