/* XPM */
static char *result[] = {
/* columns rows colors chars-per-pixel */
"64 64 5 1 ",
"  c #4C2E16",
". c #F5CAC3",
"X c #6B4322",
"o c #E7E5E3",
"O c #CACACA",
/* pixels */
"................................................................",
"................................................................",
"..    ............................    ..........................",
"  XXXX  ........................  XXXX  ........................",
"XXXXXXXX ...................... XXXXXXXX ...................... ",
"XXXXXXXXX .................... XXXXXXXXXX .................... X",
"XXXXX  XX ...............     XXXXXXX  XX ...............     XX",
"XXXXXX XXX .............  ooo  XXXXXXX XXX .............  ooo  X",
"XXXXXXXXXX ............  ooOoo  XXXXXXXXXX ............  ooOoo  ",
" XX  X  XX ...........  ooOOOoo  XX  X  XX ...........  ooOOOoo ",
"  XX XX X ............  ooOOOOoo  XX XX X ............  ooOOOOoo",
"o  XXXXXX ............ X oooOOOoo  XXXXXX ............ X oooOOOo",
"oo XXXXX ............. XX  oooOOoo XXXXX ............. XX  oooOO",
"oo XXXX ..............  XXX  ooooo XXXX ..............  XXX  ooo",
"   XX  ................  XXXX      XX  ................  XXXX   ",
"X    ...................   XXXXXX    ...................   XXXXX",
" .........................  XXXX .........................  XXXX",
"............................    ............................    ",
"................................................................",
"................................................................",
"................................................................",
"................................................................",
"................................................................",
"................................................................",
"..    ............................    ..........................",
"  XXXX  ........................  XXXX  ........................",
"XXXXXXXX ...................... XXXXXXXX ...................... ",
"XXXXXXXXX .................... XXXXXXXXXX .................... X",
"XXXXX  XX ...............     XXXXXXX  XX ...............     XX",
"XXXXXX XXX .............  ooo  XXXXXXX XXX .............  ooo  X",
"XXXXXXXXXX ............  ooOoo  XXXXXXXXXX ............  ooOoo  ",
" XX  X  XX ...........  ooOOOoo  XX  X  XX ...........  ooOOOoo ",
"  XX XX X ............  ooOOOOoo  XX XX X ............  ooOOOOoo",
"o  XXXXXX ............ X oooOOOoo  XXXXXX ............ X oooOOOo",
"oo XXXXX ............. XX  oooOOoo XXXXX ............. XX  oooOO",
"oo XXXX ..............  XXX  ooooo XXXX ..............  XXX  ooo",
"   XX  ................  XXXX      XX  ................  XXXX   ",
"X    ...................   XXXXXX    ...................   XXXXX",
" .........................  XXXX .........................  XXXX",
"............................    ............................    ",
"................................................................",
"................................................................",
"................................................................",
"................................................................",
"................................................................",
"................................................................",
"..    ............................    ..........................",
"  XXXX  ........................  XXXX  ........................",
"XXXXXXXX ...................... XXXXXXXX ...................... ",
"XXXXXXXXX .................... XXXXXXXXXX .................... X",
"XXXXX  XX ...............     XXXXXXX  XX ...............     XX",
"XXXXXX XXX .............  ooo  XXXXXXX XXX .............  ooo  X",
"XXXXXXXXXX ............  ooOoo  XXXXXXXXXX ............  ooOoo  ",
" XX  X  XX ...........  ooOOOoo  XX  X  XX ...........  ooOOOoo ",
"  XX XX X ............  ooOOOOoo  XX XX X ............  ooOOOOoo",
"o  XXXXXX ............ X oooOOOoo  XXXXXX ............ X oooOOOo",
"oo XXXXX ............. XX  oooOOoo XXXXX ............. XX  oooOO",
"oo XXXX ..............  XXX  ooooo XXXX ..............  XXX  ooo",
"   XX  ................  XXXX      XX  ................  XXXX   ",
"X    ...................   XXXXXX    ...................   XXXXX",
" .........................  XXXX .........................  XXXX",
"............................    ............................    ",
"................................................................",
"................................................................"
};
