/* XPM */
static char *_006c249bf034291bb1729369c2e9cfbBKBoEncUkp6ZGTH8[] = {
/* columns rows colors chars-per-pixel */
"64 64 252 2 ",
"   c #1A482C",
".  c #1E4A35",
"X  c #1E4B3A",
"o  c #1A4637",
"O  c #1C5136",
"+  c #244C2C",
"@  c #28542C",
"#  c #224C34",
"$  c #234C3C",
"%  c #2A4D3C",
"&  c #264835",
"*  c #255234",
"=  c #2B5434",
"-  c #25523B",
";  c #2A533C",
":  c #2C5B38",
">  c #355838",
",  c #374D36",
"<  c #3C6A2D",
"1  c #3A662C",
"2  c #3B6534",
"3  c #3E6A34",
"4  c #3C653B",
"5  c #3D6A3B",
"6  c #356337",
"7  c #396E2E",
"8  c #436B2E",
"9  c #476928",
"0  c #4A722C",
"q  c #426B34",
"w  c #43663B",
"e  c #436B3B",
"r  c #496937",
"t  c #477238",
"y  c #547337",
"u  c #536F33",
"i  c #495C3B",
"p  c #1D4A42",
"a  c #1F5349",
"s  c #234C42",
"d  c #284B47",
"f  c #364C47",
"g  c #255142",
"h  c #2B5242",
"j  c #2B534A",
"k  c #365446",
"l  c #365353",
"z  c #3B6542",
"x  c #3B6643",
"c  c #3D694E",
"v  c #564B5A",
"b  c #59535B",
"n  c #4A544F",
"m  c #62575D",
"M  c #436A43",
"N  c #486943",
"B  c #546B48",
"V  c #547345",
"C  c #547051",
"Z  c #647259",
"A  c #5C4D63",
"S  c #5B5563",
"D  c #635766",
"F  c #5B6B68",
"G  c #67726A",
"H  c #77766C",
"J  c #6A6D75",
"K  c #756D7B",
"L  c #776D78",
"P  c #6B7476",
"I  c #75747B",
"U  c #7B737C",
"Y  c #797778",
"T  c #6B6C6D",
"R  c #1C3E30",
"E  c #B7765A",
"W  c #846C7E",
"Q  c #827B7D",
"!  c #847579",
"~  c #84766B",
"^  c #B47868",
"/  c #C57463",
"(  c #78953A",
")  c #729139",
"_  c #7BA037",
"`  c #799647",
"'  c #7A9753",
"]  c #71904C",
"[  c #758A7B",
"{  c #7CA644",
"}  c #849B3C",
"|  c #88A13B",
" . c #849C43",
".. c #839D4B",
"X. c #879848",
"o. c #869650",
"O. c #8AA246",
"+. c #88A054",
"@. c #888C72",
"#. c #A99079",
"$. c #D8905A",
"%. c #D79868",
"&. c #D69674",
"*. c #CE9470",
"=. c #786C83",
"-. c #7D7483",
";. c #7C7983",
":. c #777785",
">. c #827582",
",. c #827B83",
"<. c #857988",
"1. c #846E83",
"2. c #6B9498",
"3. c #739899",
"4. c #6F8C90",
"5. c #78A397",
"6. c #6B94A8",
"7. c #7196A6",
"8. c #899488",
"9. c #96968B",
"0. c #9B949B",
"q. c #9D9B9B",
"w. c #999896",
"e. c #8B888F",
"r. c #A29B9D",
"t. c #A5979A",
"y. c #AD9D8E",
"u. c #99A39B",
"i. c #8CBD9D",
"p. c #88B89C",
"a. c #92BC9E",
"s. c #8CA790",
"d. c #A5A39C",
"f. c #A8A699",
"g. c #B1B49C",
"h. c #9C99A3",
"j. c #A49CA3",
"k. c #A799A6",
"l. c #9BA3A5",
"z. c #8CBBA3",
"x. c #8AB9A8",
"c. c #94BBA6",
"v. c #91AEB3",
"b. c #A4A2A3",
"n. c #AAA4A3",
"m. c #A6A6A8",
"M. c #B5AAA8",
"N. c #A7B7A5",
"B. c #BAB5AC",
"V. c #BBBAAC",
"C. c #B5B7A9",
"Z. c #BBB5B2",
"A. c #BCBBB3",
"S. c #B7B9B6",
"D. c #ADABB1",
"F. c #C4B7AA",
"G. c #C3BCB3",
"H. c #C2BAB8",
"J. c #C0ADB3",
"K. c #CFA088",
"L. c #96C49D",
"P. c #8DC59C",
"I. c #A7D59D",
"U. c #8CC1A5",
"Y. c #96C3A7",
"T. c #98C3B1",
"R. c #A5CBA8",
"E. c #B7C6AA",
"W. c #A4D3AC",
"Q. c #ABD4AB",
"!. c #ADD9AC",
"~. c #A6D4A4",
"^. c #B2D6AB",
"/. c #A5CBB4",
"(. c #BAC5B7",
"). c #A6D4B2",
"_. c #AAD6B4",
"`. c #B3D8B4",
"'. c #C5C2B7",
"]. c #C2C2AA",
"[. c #A2BDCF",
"{. c #C0BEC1",
"}. c #9CCDD9",
"|. c #9CD4DD",
" X c #99D6DA",
".X c #98D1C8",
"XX c #A6C9CC",
"oX c #B8C6C6",
"OX c #A6CBD8",
"+X c #A4D4DC",
"@X c #ABD4DC",
"#X c #A3DADE",
"$X c #ABDADD",
"%X c #A8D4D5",
"&X c #B4DDDC",
"*X c #B8D9D9",
"=X c #B6D4CC",
"-X c #ACE3DA",
";X c #B3E3DC",
":X c #BCE4DC",
">X c #B8E5DA",
",X c #9DD4E3",
"<X c #9DDAE4",
"1X c #99D7E8",
"2X c #99D0EA",
"3X c #A7CBE5",
"4X c #A3D5E3",
"5X c #AAD5E4",
"6X c #A3DAE3",
"7X c #AADAE4",
"8X c #A3D5EA",
"9X c #A3DBEB",
"0X c #AAD8E9",
"qX c #B3DCE2",
"wX c #B6DAE6",
"eX c #A6D9F1",
"rX c #B4D1E7",
"tX c #ABE4E4",
"yX c #B4E4E3",
"uX c #BBE4E3",
"iX c #BCEAE3",
"pX c #B3E4EA",
"aX c #BBE5E9",
"sX c #B7EAE6",
"dX c #B8E7F1",
"fX c #C6DCD9",
"gX c #D6DADA",
"hX c #C6D0CA",
"jX c #C3E3DC",
"kX c #C8E7DA",
"lX c #D6E7DC",
"zX c #C5E7CC",
"xX c #CADEE1",
"cX c #C4E5E4",
"vX c #CCE5E3",
"bX c #C4EAE3",
"nX c #CDEAE4",
"mX c #CBEAEA",
"MX c #D3E6E3",
"NX c #D4EBE4",
"BX c #DCEAE3",
"VX c #DBECEA",
"CX c #D6E8E8",
"ZX c #D8F1E8",
"AX c #CEF0EF",
"SX c #E5EBE7",
"DX c #EBF8FA",
"FX c #F4FDFD",
"GX c #FDFDFD",
"HX c #F7F8F7",
"JX c #ECF2EA",
"KX c #E1E4DF",
/* pixels */
"|.eX8X2X,X#X1X,X|.4X4X@X1X1XOX%X6X|.9XOX8X4X8X1X4X,X,X4X4X4X4X8X4X+XyXuXaXuXaXyXsXiX>X:XaXpXpX@X1X4X1X,X5X,X<X@X4X4X4X4X4X4X4X4X",
"0X,X|.@X6X|.,X@X7X,X,X#X7XXXK.*.XX+XOXD. X#X4X+X+X4X6X6X4X4X,X,X1X<X<X|.yXaXyXyXtXyXuXqX#X4X4X+X#X@X@X#X|.<X,X5X1X1X9X1X,X<X1X<X",
"+X X9X|.4XeX3X+XOX&.%.OX}.*.$.$.E ^ n.F.(.XX,X0X1X1X1X,X4X0X0X0X4X4X6X|.6X+X+X#X4X7X7X6X4X,X4X4XsXxXVXAX@X7X,X1X4X}.4X6X0X7X+X7X",
"%XK.oX X1X3X^ / &.*.$.^ / $.&.%.^ ~ w.B.S.(.4X8X4X4X+X*XvXBXJXGXDXcXqX0X4X4X4X,X+X4X|.1X8X6X7XqXNXGXGXFXGXFXwX,X6X+X+X@X*XCXVXDX",
"eXXXK.=XXXE / ^ %.$.&.E ^ OX8X2Xe.L :.k.j.y.m.+X4X8X4XaXAXVXJXFXFXvXqXpX4X4X8X4X+X6X,X4X6X+XqXaXMXGXGXFXGXGXDX7X}.4XpXpXaXAXnXvX",
" X2XXXK.&.#.[.OX%.&.OX4X%XeX3X+XXXY W S.S.F..XeXuX&X&XcXnXjXjXnX@X@X6X6X|.+X%XyXpXpX6X7XuX:XjXnXjXZXBXSXHXGXFX@X8X1X,X,X|.#X|.+X",
"8X|.#X}.rXOX9X1X@X2X@X<X2X XOX9X8X:.,.J.l.(.qX2X7X+X4X6X7X+X4X9X,X1X|.|.6XpXyXyXpXyX+XqXmXNXNXNX:X>XVXHXGXGXFX@XtX#X#X6X6X4X4X5X",
"4X4X8X+X|.9X+XXX|.eX|.@X9X8XeX,XOX:.Y C.n.A.%X5X4X2X1X4X+X+X4X|.0X4X4X0X4X0X4X4X%X$X+XuXNXlXlXBXBX:XiXVXGXGXFXmXHXGXDXcXOX4X1X1X",
"+X4XOX&.XXOX%.*.n.4X4X;XFXFXFX+X4.I Y F.B.F.oX%X8X1X<X X|.0X4X1XOXyXcXDXGXFX@X4XvXNXcXnXcXnXNXBXBXlXkXlXBXVXCXcXmXFXFXwX$X+X+X9X",
"*.oX*.%.E ^ &.&.d.qXdXiXcXFXGX#X[.:.=.Q m.m.3X8X1X|.%X*XmXDXcX$XyXiXnXZXHXGXFXaXlXNX:XsXyXiXnXlXaXyX:XNXSXlXlXkX-XuXiX-XyXyXtX-X",
"OX&.&.OX^ ^ @XOXk.,X1X5X4X0X5X1X+X;.:.M.Z.S.$X0X+XqXmXMXSXJXNXjXiX:XAXMXBXSXFXjX:X:X>X:X:XiXiXuXpXpXyXiXmXcXbXiX7X+X4X8X8X,X9X5X",
" X@XOX0X}.,X4X}.n.XX6X5X<X4X+X<X}.;.U F.G.F.bXmXvXnXNXlXlXJXHXFXDXaXyXjXCXmXiX;XpXaXcXmXnXaXyXpXjXbX:X>X:XjXNXnXbX>XyXpX7X X|.OX",
"8X6X,X1X,X6X3X[ q.oX$X+X<X4X|.wXOX-.,.B.G.A.&XrX0X4X6X<X9X0X0X5XqX+X4X4X7X#X X9X4X+X4X4X0X@X$XyXqXyXyX;X:XvXVXMX@X#X,X4X4X6X6X7X",
"2X+X6X@X0XOX[.,.h.oXXX8X9X,X6XDXDX<.-.A.b.(.}.2X4X+X+X,X,X|.,X8X<X9X9X1X,X5XwX4X9X,X1X1X6X|.+X#X<X<X,X6X0X4X4X4X4X6X4X@X*XcXnXNX",
"wXDXFXFXtX}.4.:.r.F.H.6X X*XFXGXJX! U B.d.V.%X<X,X4X4X4X6X6X1X|.,X4X4X+X&XCXFXDX4X+X$X%XtXpXpXtXyXqXqXwX7X4X4X6X7XpXaXnXMXSXBXNX",
"-XcXHXFXGXrXI ! j.V.{.,X<X7XGXHX0.U :.M.G.F.oX%X1X9X4X4X4X4X7X7X5X7XaXmXlXlXKXGXVXvXaX+X6XpXyX*X4X4X4X6X6X#XyXaXyX>X:XbXkXMXMXaX",
";XD.jXFXGXHX,.U h.n.S.-XGXGXGXGXJXQ I @.b.m.OX1X|.aXyX*XuXCXNXlXfXMXNXjXjXnXNXBXCXcXyX4X4X1X<X|.4X XwXCXNXlXMXpX<X4X0X4X4X7X7X4X",
"*Xm.*XbXDXDX:.;.t.y.'.DXHXGXGXGXFXQ I B.H.A.@X9X9X6X6XpX4X5X$XaXiXiXiX:X;XuXcXnXnX:XyXtX6X|.7XqX6XqXDXGXJXSXVXqX4X,X4X4X4X6X,X<X",
",.r.l.%XaXe.L U t.Z.C.hXjXbX&XaX*X;.;.G.B.'.&X7X;X&X;X;X-XyX;X;XpXyXaXaXaXaXuXcXuXiXiX;X*XMXDXGXFXNXSXHXGXGXGXDXcX>X:XcXbXsX-X;X",
"U h.l.&X XXX<.U 4.r.m.OX9X#X}.tX+X;.U F.G.(.$X$X0X0X|.4X<X0X,X6X0X4X@X+X4X6X6X#X<X XyXAXCXMXJXFXGXMXlXSXJXGXFXbXwX7X7X0X0X4X4X0X",
"U 0.l.fXtXtX;.U q.G.H.-XqXyXuXwX$X-.U F.H.E.yXpX;XuXaXuXuX&XuXuXyXyXuXiXuXyXuX:XaXaXaXjXjXkXnXkX:XnXZXMXvXmXuX;XyXyXuXyXyXuXuXuX",
",.t.l.m.*X-X<.L t.F.'.>XD.*XfXD.&X,.-.B.b.C.iXaX-XsX$XsX:X>XiXyX>X:XkXNXNXMXSXHXGXSXMXmXbXaX:XuX:XiX;XsXaXyX;X:X:XvXnXbXbXNXCXNX",
"I q.l.=XbX*XI I q.'.(.fXh.l.l.b.oX,.U B.m.V.*XuXjX*X3.oXoXhX(.jXiXaXuXcXcXmXDXGXGXDXnX:X&XiXiXuXuXuX>XzXV.(.jXtXjXbXjX>X>XkXNXNX",
">.t.m.kXvXgX>.I q.G.'.gXm.t.t.u.4.L ,.B.Z.F.oXnXNXMXU Y G.(.(.lXMXNXlXkXnXMXBXBXNXNXMXCXMXNXNXNXNXKXm.m.G.V.'.KXMXCXCXCXCXNXNXlX",
"Q r.j.b.n.j.U U n.V.(.hXl.b.0.n.oX:.I ,.d.m.fXuXjX*X:.>.G.V.S.vX:XiXiX:XcXbX:X>XjX:XiX;XiXjXFXGXHXm.0.n.Z.'.A.'.*X:XiX*XcXiX-XT.",
"U 0.m.0.0.j.U ,.t.A.A.m.q.h.b.t.l.I Y M.G.A.lXNXNXfX:.>.B.g.A.vXCXCXNXZXMXMXMXVXMXNXMXNXNXNXNXlXM.r.d.A.'.B.G.V.(.(.kXNXVXjXT.z.",
"-.h.;.0.,.h.U U 0.e.Z.Q 0.U 0.,.q.Y Q H.G.'.lXm.m.VX;.U C.f.G.BXBXMXlXlXlXSXBXVXlX(.gXJXlXlXkXT.h.u.E.E.F.G.(.^.E.`.`.kXkXT.U.i.",
"-.U U K U U U -.U U U U >.U U U -.K ,.M.n.H.gXh.b.gX;.Q V.'.A.BXNXkX=X`.lXBXlXkXd.A.hXfXkX/.z.p.x.c._.E.E.(.Q.Q.^.W.i.Y.Y.U.p.z.",
"-.U U -.U U U U U U b K K b K I A -.U Z.n.Z.n.q.m.gX,.! B.'.A.kXzXT.W.!.`.zXkXT.d.S.c._.Y.i.z.Y.z.z.a.)._.Q.`.(.^.Q.Y.i.p.z.x.c.",
"K S e.,.,.0.U U 0.K D <.K b U -.b L Y Z.A.(.d.d.b.gX,.! H.G.A.N.T.z.U._.Q.`.R.p.c./.a._.W._.).i.U.a.c.).Y.L.E.A.E.`.)._.Y.z.U.z.",
"v b j.0.0.b.r.r.r.U K J K U L -.K L ,.Z.V.V.A.Z.A.S.Z.Z.H.A.A.C.z.c.i.Y.Y.Q.R.Y.W._.Q.!.^.Q.).Y.W.R.`.`.Y.c.a.N.`.L.W.Q.Q.W.P.i.",
"v v 0.j.r.r.r.q.t.b A S v b b A A b b j.n.n.b.n.d.q.b.m.q.n.n.d.x.U.p.U.P._._.W.!.~.^.^.^.^.Q.Q.^.!.~.).U.U._.W.).P.~.^.^.!.Q._.",
"v b 0.D j.t.9.F 0.U K L K U U K Y K U V.V.A.V.A.V.E.G.Z.V.G.H.C.x.U.c.P.a.).U.~.Q.).P.W.i.W.^.`.!.Q.^.!.~.!.!.Q.Q.!.a.^.`.Q.`.I.",
"A b 0.D 0.n.0.S 0.m K U D f.Q Q M.<.,.A.G.f.B.H.G.G.M.e.C.'.Z.N.c.R.i.z.x.U.z.c.R.Y.p.Y.U.i.i._.!.!.Q.^.!.Q.Q.!.!.L.5.R.!.I._.!.",
"v A w.k.j.9.j.k.0.b v v S B.A.A.A.;.U B.G.f.G.H.,.Y ,.Y V.'.G.E.A.G.c.c.x.i.i.x.U.i.z.c.c.W.W.!.!.!.Q.Q.!.Q.Q.`./.s.T.!.!.I.I.Y.",
"n A 9.b.8.V t.j.j.n v v A J.A.Q C.;.U V.G.V.'.B.:.I U ,.A.G.G.C.C.S.<.H I [ p.z.x.p.c.).I.`._.Q.!.~.!.W.Q.!.`.R.5.R.`._.c._.Y.z.",
"% v C 8.k 5 9.d.8.C v b v J.A.e.C.;.U A.G.'.V.b.j.j.j.j.q.r.q.l % k F C =.K I ! ,.w.b._.!.R.c.W.!.!.~.L.W.Q.Q.~.3.).~.W.c.c.c.z.",
"$ b w N h 6 B 8.B N n i m g.V.C.A.-.U B.G.A.d.0.t.m.r.w.b.Z.C.h   & j h T B H :.G >.=.I w.l.c.P.W._.i.i.).L.R.!.).5.3.3./.W.I.Y.",
"$ & e 2 $ = e e e 4 = r w C N.Z n.<.U B.'.V.f.n.u.h.b.V.G.'.g.> % & p O w 7 N G N J <.Y Q <.0.c.z.z.z.Y.).i.P.W.!.~.W.3.2.6.3.I.",
"$ # 3 q s $ < e 5 = X 3 6 > u.V H K U V.G.'.B.A.F.S.C.].V.g.@.@ O x = e 3 i - e B P T B G U Q u.x.2.x.x.x.z.i.).W.c.~.Q.R.3.2.6.",
"X s s 3 $   M e % s X s # % M q M U l s.'.g.V C.C.O.' ..} O...) u ) u e e % - 7 r M - d Z Z :.w.u.3.6.5.x.3.x.z.3.z.U.W.T.W.z.2.",
". $ * 5 $ - % 5 $ $   - x $ # 5 0 F d C f.Z q ` V ) y ` ..( } ....` ` y ] = R e 8 # d $ w r P Y j.l.2.4.2.3.x.2.6.p.T.z.i.~.P.W.",
". o # * s # * q X ; + # 5 % & = 4 j & * ' r t q 8 t r ) u '  .X.` u ( ` ..` B e e e 5 % - 3 N :.t.q.7.6.2.2.2.2.6.p.2.p.i.x.L.).",
"s $ s & g $ 6 e * o x w q M # . h . & $ @ e 2 ; 3 w u ) V e ` } t r `  .} } ` y ] t 3 + X & & h L w.4.2.2.2.6.2.2.7.4.C x.x.x.z.",
"X # # % o s # * 5 s ; N 8 3 5 g 6 - - % o M @ $ 5 5 q 0 3 M ' } t 4 y } }  .O.( O.) e * . j s $ -.;.' { [ 2.2.6.2.6.4.e s.h : v.",
"$ # 6 h % - $ # 3 g + 4 q 3 < ; 3 $ - 1 : M - s @ 5 > z 8 e 0 ` q e N ` X.X.} ..( | ` B X o ; f L q.o.( +. .' 4.2.[ ` < j $ X = ",
"s * q ; > # & # q M + ; 3 = 4 4 < $ s 5 + # & $ 4 M # % 1 q ` u q q 8 0 +...}  . .} X.9 e * N H -.Y X.X.X.} | ( V ] > e > * $ p ",
"$ 3 8 4 3 $ . d q q x $ 6 $ % q e $ $ a > h . $ * x * - q V ` u t w 0 `  . .X.}  . .` ' u `  .=.-.9. .( ` .. . .8 q d 3 q % o * ",
"< e e 8 w $ . p $ % 1 - s X * x M * $ q q X - & s % 6 # r ] O.( ` t X.X.X. .X.o.o..._  . .` H <.-.H o.t } } O.] ; X . = 4 # $ X ",
"e e w q w $ X X $ $ 5 . X o % # %   - 2 e ; x = q x @ x V u ` o.( V I q.9.+.} H h.#...@.H l K Y e.,.] N ) O.) ; & $ $ z e 5 * X ",
"= 5 M = 2 # p - X X $ $ # d # ; 2 ; s g 4 1 8 5 2 > q 0 ` Z @.9.o.' Q 0.k.h.u.k.r.k.w.U P # :.=.k P > 3 u ] > s $ s - 5 w k $ $ ",
". * z * # . j . X - X $ x s   $ 5 w . s $ > y q C 8.s.V ' e.h.k.b.w.k.b.9.r.H.g.;.1.j.0.f ; 8.H ; F s $ 0 = g   s $ # + q < 2 $ ",
"$ $ # . g X % $ # 4 % & 5 ; * - * e 3   k N.f.C T j.b.w.d.h.r.G.F.q.t.U l H M.k.I =.W P $ . l T h g - $ 4 c X - s o * @ M % h $ ",
"h & $ - X s 4 ; d z * h 1 w 5 w N N e ; P V.j.w.<.k.t.n.B.d.w.V.! ;.9.U d H >.I P :.L k X s a & o $ - 1 N *   & $ . X $ x q 2 $ ",
"X 6 g . X g 3 z d = 6 j 5 q r V V.N.N f =.<.0.f.w.k.r.Z.B.,.w.r.L K e.G # Y I I B P ! F - & p ; x % - 5 8 - 6 , $ $ X s g % $ s ",
"; < s $ # $ < e % 1 7 d * w n 8.F.S.s.I U w.j.j.b.h.r.j.Q =.;.-.;.-.T , d I B J B J I l s $ X * e < $ # w 3 5 N & - X p $ + # p ",
"8 5 *   p O 6 e = g < 3 e q n m ;.j.b.q.q.q.d.A.D.Q t.j.U I I -.=.H U s * G r h q e = . p s . - 3 ; + 3 2 4 = d - p s X $ . # s ",
"8 M z k s . : > 6 % V t q N S L U j.q.r.n.j.Z.Z.,.U U -.P l P 1.:.Z F - X f 6 % w M > - $ $ . $ 4 e 2 ; j x q 1 2 = - . s X # $ ",
"w q ; 2 + d > f Z N.g.V N G -.0.j.q.d.V.d.0.m L L U >.W I f P W G q k x s & - $ M 4 :   . g $ $ 5 w ; # x 5 2 t * . . % s s # # ",
"w q 4 e 4 * e b f.'.A.9.B I j.j.j.Z.G.'.Z.r.b b I :.K U P s l J n 3 5 3 # s X $ # * z * . X $ $ % 3 6 % @ q e w d g = 4 $ g . $ ",
"8 8 c . $ . 8 n D M.b.q.w.q.r.k.,.q.A.V.Q 0.0.-.K W W P j % G I J = q q e $   g & # z - . $ X $ 5 q = d x q 1 M w 2 < 3 # $ X s ",
"w 3 $ h d l r v A Y q.k.k.q.9.1.v m M.e.U ,.U U :.-.L l   $ k d J % 3 q 8 c - & g $ - . . - $ X + 5 4 . d s = < q = 6 = $ o $ $ ",
"M % k N.S.N.Y D j.w.j.h.r.r.w.S v b U I K -.U U :.K U F k & . g f X * 4 @ ; X % o $ % $ $ $ $ $ $ * x ; X # z ; k s h $ d X . . ",
"1 k D.F.F.'.B.B.q.n.w.b.b.t.0.b v v v >.>.K U Y L U f s X . $ X . a o * $ & p $ $ - . $ X $ $ $ . d $   $ $ # $ * X . $ $ - . d "
};
