/* XPM */
static char *_64a55d821dc4bfff6941f258c525747M7B63aLwdlB7rO8H[] = {
/* columns rows colors chars-per-pixel */
"64 64 6 1 ",
"  c #110D26",
". c #15235A",
"X c #924747",
"o c #1F52B7",
"O c #1F7EC3",
"+ c #76AFD8",
/* pixels */
"oooooooooooooooooooOOOOooooooooooooooooooooooooooooooooooooooooo",
"oooooo+++oooooooooOOOOOOOooooooooooOOooooooooooooooo+ooooooooooo",
"ooooo+++oooooooooOOOOOOOOOOOOooooOOOOOOOOooooooooooooooooooooooo",
"oooo+++ooooooooooOOOOOOOOOOOOOOOOOOOOOOOOooooooooooooooooooooooo",
"oooo+++ooooooooooOOOOOOOOOOOOOOOOOOOOOOOoooooooooooooooooooooooo",
"oooo+++ooooooooooooOOOOOOOOOOOOOOOOOOOOooooooooooooooooooooooooo",
"oooo++++ooooooooooooOOOOOOOOOOOOOOOOOOoooooooooooooooooooooooooo",
"ooooo+++oooooo+oooooooOOOOOOOOoooooooooooooooooooooooooooooooooo",
"oooooo+++ooooooooooooooOOOOOOOoooooooooooooooooooooooooooooooooo",
"ooooooooooooooooooooooooooOOOoooooooooooooooooOooooooOOoooooo+oo",
"ooooooooooooooooooooooooooooooooooooooooooOOOOOOOOOOOOOOoooooooo",
"ooooooooooooooooooooo+oooooooooooooooOOOOOOOOOOOOOOOOOOooooooooo",
"ooo+ooooooooooooooooooooooooooooooooOOOOOOOOOOOOOOOOOOOooooooooo",
"ooooooooooooooooooooooooooooooooooOOOOOOOOOOOOOOOOOOOooooooooooo",
"oooooooooOOOoooOOoooOOooooooooooooOOOOOOOOOOOOOOoooooooooooooooo",
"ooooOOooOOOOOOOOOOOOOOoooooooooooooOOOOOOOOOOOo                 ",
"ooooOOOOOOOOOOOOOOOOOOOoooooooooooooOOOOOOOOOoo ............... ",
"ooooOOOOOOOOOOOOOOOOOOOoooooooooooooooOOOOOOooo ............... ",
"ooooOOOOOOOOOOOOOOOOOOooooooooooooooooooooooooo XXXXXXXXX...... ",
"oooOOOOoOOOOOOOOOOOOoooooo+ooooo+oooooooooooooo XXXXXXXXX...... ",
"oooooOooooOOOOOOOOOoooooooooooooooooooooooooooo ............... ",
"ooooooooooooOOOOOoooooooooooooooooooooooooooooo ............... ",
"oooooooooooooooooooooooooooooooooooooooo+oooooo ............... ",
"ooooooooooooooooooooo+ooooooooooooooooooooooooo ......XXXXXX... ",
"oooooo+oooooooooooooooooooooooooooooooooooooooo ......XXXXXX... ",
"ooooooooooooooooooooooooooooooooooooooooOOOOOOO ............... ",
"ooooooooooooooooooooooooooooooooooooooOOOOOOOOO ............... ",
"oooooooooooo              oooooOOOOOOOOOOOOOOOO ............... ",
"oooooooooooo ............ oooooOOOOOOOOOOOOOOOO ............... ",
"oooooooooooo ............ oooooOOOOOOOOOOOOOOOO ............... ",
"oooooooooooo ............ ooooooooooOOOOOOOOOOO ...........XXXX ",
"oooooooooooo ............ ooooooooooooOOOOOOOOO ...........XXXX ",
"oooooooooooo ....XXXXXX.. oooooooooooooooOOOOOO ............... ",
"ooooo+oooooo ....XXXXXX..               ooOOOoo XXXX........... ",
"oooooooooooo ............ ............. ooooooo XXXX........... ",
"oooooooooooo ............ ............. ooooooo ............... ",
"oooooooooooo ............ ............. ooo+ooo ............... ",
"oooooooooooo ............ ............. ooooooo ............... ",
"               .......... ............. ooooooo ......XXXXXXXX. ",
" ............. .......... ...XXXXX..... ooooooo ......XXXXXXXX. ",
" ............. .......... ...XXXXX..... ooooooo ............... ",
" ............. .......... ............. ooooooo ............... ",
" ............. .......... ............. ooooooo ............... ",
" ............. .......... ............. ooooooo ............... ",
" .XXXXX....... .......... ............. ooooooo ............... ",
" .XXXXX....... .......... ............. ooooooo ............... ",
" ............. .......... ............. ooooooo ............... ",
" ............. .......... .............         XXXXXXXX....... ",
" ............. .......... ............. ....... XXXXXXXX....... ",
" ............. XXX....... ........XXXX. ....... ............... ",
" ............. XXX....... ........XXXX. ....XXX ............... ",
" ............. .......... ............. ....XXX ............... ",
" ............. .......... ............. ....... ............... ",
" ............. .......... ............. ....... ............... ",
" ......XXXXX.. .......... ............. ....... ............... ",
" ......XXXXX.. .......... ............. ....... ............... ",
" ............. .......... ............. ....... ............... ",
" ............. .......... XXXXX........ ....... ............... ",
" ............. .......... XXXXX........ ....... ............... ",
" ............. .......... ............. ....... ............... ",
" ............. .......XXX ............. ....... ......XXX...... ",
" ............. .......XXX ............. ...XX.. ......XXX...... ",
" ............. .......... ............. ...XX.. ......XXX...... ",
" ............. .......... ............. ...XX.. ......XXX...... "
};
