/* XPM */
static char *_dd49c8d6fef4d559944f5f3ac6c84f0O3jnEVeXGRxrDe4u[] = {
/* columns rows colors chars-per-pixel */
"64 42 239 2 ",
"   c #130811",
".  c #1A1819",
"X  c #250C1A",
"o  c #320E16",
"O  c #2B1319",
"+  c #36141B",
"@  c #312E1B",
"#  c #3A1924",
"$  c #1C2E35",
"%  c #2D3524",
"&  c #373729",
"*  c #352930",
"=  c #383E38",
"-  c #45171C",
";  c #56181F",
":  c #6C251C",
">  c #4C1C26",
",  c #5E1C21",
"<  c #442A29",
"1  c #572825",
"2  c #542F32",
"3  c #593433",
"4  c #692927",
"5  c #782926",
"6  c #663327",
"7  c #793428",
"8  c #672E30",
"9  c #673538",
"0  c #773938",
"q  c #314235",
"w  c #4A4239",
"e  c #7B4139",
"r  c #323849",
"t  c #463948",
"y  c #603E49",
"u  c #1E4A54",
"i  c #1A525A",
"p  c #2A4D4F",
"a  c #344946",
"s  c #284B54",
"d  c #394859",
"f  c #385456",
"g  c #0C576A",
"h  c #19596B",
"j  c #0E5C71",
"k  c #155C74",
"l  c #165C79",
"z  c #275A67",
"x  c #355B66",
"c  c #205D74",
"v  c #196477",
"b  c #1D647C",
"n  c #25647B",
"m  c #376978",
"M  c #366D79",
"N  c #43575A",
"B  c #515252",
"V  c #7B4C49",
"C  c #705352",
"Z  c #4E605D",
"A  c #465764",
"S  c #4F5265",
"D  c #6B5C67",
"F  c #45646D",
"G  c #54676B",
"H  c #466A77",
"J  c #566978",
"K  c #4C727A",
"L  c #696D74",
"P  c #796A74",
"I  c #87252B",
"U  c #942D2D",
"Y  c #86352A",
"T  c #9B372E",
"R  c #9B2C31",
"E  c #843B34",
"W  c #963833",
"Q  c #A13F2F",
"!  c #A43935",
"~  c #864239",
"^  c #9E4337",
"/  c #A64938",
"(  c #B04C36",
")  c #B54C38",
"_  c #844746",
"`  c #964A45",
"'  c #96564C",
"]  c #8F5350",
"[  c #895957",
"{  c #A84F4C",
"}  c #AA5747",
"|  c #B25747",
" . c #956256",
".. c #B06352",
"X. c #865C64",
"o. c #83686A",
"O. c #996B67",
"+. c #84747D",
"@. c #95737B",
"#. c #A46862",
"$. c #B17868",
"%. c #A57471",
"&. c #B9857A",
"*. c #1C6783",
"=. c #246583",
"-. c #236A84",
";. c #2B6C85",
":. c #276B88",
">. c #2C6C8A",
",. c #386C86",
"<. c #336D8C",
"1. c #277289",
"2. c #2D728B",
"3. c #34738C",
"4. c #3B748E",
"5. c #36788C",
"6. c #3A6C92",
"7. c #2F7692",
"8. c #347591",
"9. c #3D7493",
"0. c #377B96",
"q. c #3C7A94",
"w. c #477988",
"e. c #597385",
"r. c #427693",
"t. c #497791",
"y. c #437B94",
"u. c #4B7C95",
"i. c #447699",
"p. c #4A769B",
"a. c #457D99",
"s. c #4B7C9B",
"d. c #547B99",
"f. c #667A8A",
"g. c #747383",
"h. c #797A87",
"j. c #737B90",
"k. c #4D7CA0",
"l. c #527DA2",
"z. c #827D8D",
"x. c #31838C",
"c. c #3C8197",
"v. c #4C858E",
"b. c #488198",
"n. c #4C839C",
"m. c #52849C",
"M. c #57889A",
"N. c #67899C",
"B. c #788791",
"V. c #788395",
"C. c #68919A",
"Z. c #4A86A2",
"A. c #4C84A1",
"S. c #5384A2",
"D. c #5B84A3",
"F. c #548BA3",
"G. c #5B8CA4",
"H. c #5E8AA9",
"J. c #5B90A4",
"K. c #5E92A9",
"L. c #6589A6",
"P. c #628DA5",
"I. c #648DAC",
"U. c #6A8EAD",
"Y. c #738BA6",
"T. c #6392AA",
"R. c #6895A8",
"E. c #6C92AC",
"W. c #7997A6",
"Q. c #7394AD",
"!. c #6790B0",
"~. c #6C93B2",
"^. c #7295B2",
"/. c #7997B2",
"(. c #7599B5",
"). c #7A9CB5",
"_. c #7B9DB9",
"`. c #7CA4AE",
"'. c #7BA3B5",
"]. c #7DA1BC",
"[. c #7EA7C0",
"{. c #7DA9C1",
"}. c #8F868F",
"|. c #868B9A",
" X c #989399",
".X c #AF8A8F",
"XX c #A4959A",
"oX c #AE969B",
"OX c #B59395",
"+X c #8497AC",
"@X c #989BA6",
"#X c #829DB6",
"$X c #A79EA3",
"%X c #83A4BD",
"&X c #88A8B9",
"*X c #95A9B2",
"=X c #A6ACB6",
"-X c #B0ADB4",
";X c #C19F96",
":X c #85A7C0",
">X c #88A7C1",
",X c #84AAC2",
"<X c #8BABC2",
"1X c #92AEC3",
"2X c #8FB5C8",
"3X c #95B2C5",
"4X c #9BB4C6",
"5X c #94B6C9",
"6X c #9BB7C9",
"7X c #95B8C9",
"8X c #9CBACA",
"9X c #A3B6C5",
"0X c #A5B8C6",
"qX c #ACBAC6",
"wX c #A3BDCB",
"eX c #ABBECA",
"rX c #B3BBC5",
"tX c #B9BFC6",
"yX c #B3BEC9",
"uX c #A6C0CD",
"iX c #A9C1CD",
"pX c #ADC1CC",
"aX c #ADC2CE",
"sX c #AFC4CF",
"dX c #B4C3CC",
"fX c #B2C5CF",
"gX c #B5C6CF",
"hX c #BBC4CC",
"jX c #BBC8CF",
"kX c #AEC3D0",
"lX c #B5C6D0",
"zX c #B8C8D0",
"xX c #BCC9D1",
"cX c #C2C6CC",
"vX c #C5C9CE",
"bX c #CCCCCF",
"nX c #C3CCD1",
"mX c #CACDD0",
"MX c #D1CFD1",
/* pixels */
"2X2X5X5X5X5X7X7X7X7X7X7X7X7X8X8X8X8X8X8X8XwXwXwXwXwXwXwXwXwXwXwXwXwXwXwXwX8X8X8X8X7X7X7X7X7X5X5X2X2X<X<X<X<X,X,X,X,X,X{.{.{.].].",
"5X5X5X5X7X7X7X7X7X7X7X8X8X8XwXwXwXuXuXuXuXuXuXuXiXiXiXiXiXiXiXiXiXeXiXwXwXwXwXwXwXwX8X8X8X8X7X7X7X7X3X2X2X<X<X<X,X,X>X,X,X{.[.[.",
"5X5X7X7X7X7X7X7X8X8XwXwXwXwXwXuXiXiXiXaXaXkXaXaXsXsXsXsXsXsXsXsXaXaXaXaXiXiXiXiXuXwXwXwXwXwX8X8X7X6X7X3X5X3X2X2X<X<X>X,X,X,X:X[.",
"5X7X7X7X7X7X8XwXwXwXwXuXiXiXaXaXsXsXfXfXlXlXgXgXgXgXlXlXgXgXgXfXgXfXfXfXfXfXfXaXaXiXiXiXeXwXwXwXwXwX8X6X6X7X5X3X2X<X<X<X,X,X,X:X",
"7X7X7X8X8X8XwXwXiXiXiXaXsXfXfXgXgXlXzXgXgXxXgXxXxXxXxXxXxXzXxXgXzXgXgXgXgXgXgXfXfXfXfXfXaXaXaXeXeXwXwXwX8X8X4X3X3X3X2X<X<X>X>X>X",
"7X8X8X8XwXwXuXiXaXsXfXfXgXzXzXgXxXxXxXxXxXxXxXxXxXxXxXxXxXxXxXxXzXjXjXjXzXjXgXlXlXgXgXfXfXfXfXaXaXeXeXwXwXwX8X8X4X3X3X3X<X<X>X>X",
"8X8XwXwXwXiXaXfXfXfXgXlXzXxXxXxXxXxXxXxXxXxXxXnXnXnXxXxXxXxXxXxXxXxXxXxXxXjXjXjXjXjXgXgXgXfXfXfXfXaXeXeXeXwX0XwXwX0X6X3X3X1X<X>X",
"wXwXwXeXaXfXfXgXgXzXxXxXxXxXnXxXnXnXnXnXnXnXnXnXnXnXnXnXnXnXxXnXxXxXxXxXjXjXjXjXvXmXvXvXvXhXdXdXfXfXfXaXeXeXeXqXyXyXyX0X9X4X1X<X",
"wXeXaXaXfXfXgXjXxXxXxXxXxXnXnXnXnXnXnXnXnXnXnXnXnXnXnXnXnXnXvXnXnXxXxXxXhXnXmXmXvXvXvXhXjXjXdXdXdXfXfXdXdXaXeXdXdXyXyXyX0X9X9X4X",
"eXaXfXdXlXgXjXxXxXxXnXnXnXnXnXnXnXnXnXnXnXnXnXnXnXnXnXvXvXnXvXbXbXvXjXhXhXcXbXbXvXhXhXjXhXdXdXyXyX&Xx dXdXfXfXyXdXyXyXyXqXrXqX9X",
"aXfXdXgXjXxXxXxXnXnXnXnXnXnXnXnXnXnXnXnXnXnXnXvXvXvXvXvXvXhXvXvXvXvXhXhXhXhXhXhXhXjXhXhXhXlX&XC.M M.0XdXdXdXdXdXhXhXyXyXyXrX0X9X",
"dXfXjXjXjXjXnXvXnXnXnXnXnXnXnXnXgXgXbXvXvXcXvXcXhXhXhXhXjXjXjXjXhXhXhXhXjXhXhXhXfX&Xv.5.x.M.B C 9 r qXdXjXgXhXhXhXhXdXyXeXqX0X9X",
"dXjXjXhXjXvXnXnXnXnXnXnXnXnXnXmXdXK K *X#XC.C.C.C.W.W.W.C.C.M.C.W.`.&X&Xw.x F N L L B < 3 9 - C 8 * rXdXhXhXjXhXhXhXhXtXtXyX0X9X",
"hXjXhXhXvXnXnXnXnXnXnXnXmXmXmXvX-XC C V V o.+.L A f f N G }.}.o.V V V 0 _ V <   O 4 I I I I 0 C rXyXhXjXhXhXjXhXhXhXhXtXyXyX0X9X",
"hXhXjXjXvXnXvXnXmXmXmXmXmXmXnXnX-Xh.+._ _ ~ 0 0 0 0 0 8 1 3 8 9 0 _ ; 4 5 I I I U W ! ! / e  XqXtXhXjXhXhXhXcXhXhXhXtXyXeXqX0XqX",
"hXcXcXcXnXnXvXmXbXbXmXmXmXMXMXMXbXvXcXcX! ! ! ! ! R R R R U I , ; 5 W ^ { { ! Y { ' V o.-XtXyXhXcXhXhXhXhXhXhXhXhXdXyXeXeX0X0X0X",
"hXcXvXvXnXnXvXmXmXmXmXmXbXmXbXbXvXvXcXcXOXOXOXOX&.) ` .X.X.XP < * O |.=X=X-X.X/ @.rXqXqXrXtXhXhXhXhXcXcXcXhXhXhXhXhXdXyXqXqX0X9X",
"hXcXcXvXvXvXmXmXmXmXmXmXmXmXbXvXvXvXcXcXhXhXtXtXtX .[ rXrXqX|.      =XqXqX=X;X) O.qXqX=X=X=XdXhXhXcXcXcXcXhXhXhXhXhXdXtXyXyXqX0X",
"hXhXcXcXvXvXmXmXmXmXmXmXmXvXvXvXvXvXcXcXtXrXrXrXO.| ` $XrX-X}.w < 9 %.#.#.^ | ( } $...| ( 6 yXhXcXhXhXhXhXhXhXhXhXdXtXtXqXqXqX0X",
"hXhXhXhXvXvXvXvXvXvXbXbXbXvXvXvXvXvXcXhX#.( ( ) ) ) ) ) ) ) ) / | / / | | | ../ } | ..} } C 1X3X3X0XhXhXhXhXhXhXhXdXyXqXqX0X9X&X",
"dXhXhXhXcXvXvXvXvXvXvXvXvXvXvXvXvXvXcXhX-XXXXXXXOX| ] XXXXXX X X X|.@X*X*X9X$X/ P 3X3X3X3X3X3X1X1X1X1X4X9XhXhXtXeX6X1X1X<X>X%X].",
"dXhXjXhXhXcXcXcXvXvXvXvXvXvXvXvXvXcXhXqX6X6X6X6X=X/ X.4X3X4X4X4X4X4X4X3X3X4X$X^ o.1X1X1X3X1X1X1X1X1X<X<X<X<X<X<X<X>X%X%X%X%X_._.",
"yXdXhXhXhXcXcXcXvXcXcXvXcXcXvXcXdX0X9X4X3X3X3X3X@X/ X.3X3X3X3X4X3X3X1X1X+X&XoX^ [ 1X1X1X1X<X<X<X<X<X>X>X>X>X%X%X%X%X%X]._._.(.~.",
"%X:X&X9XyXtXtXhXcXcXhXhXyXeXeX6X4X3X<Xg.B C |.1X@X/ C W.W.W.#X3X3X1Xh.0 4 2 C T  .&Xz.D |.&X<X<X<X>X&X>X%X%X]._._._.).).(.^.^.!.",
"%X%X%X:X>X<X1X4X9X6X9X4X4X<X>X&X>X>X:X+X@.W +X>X@XQ +.X.! 0 ).1X3X1X&XO./ }.#./  .&X+., |._._._._._._._.).(.(.(.(.(.(.(.~.~.!.U.",
"].%X%X%X%X%X:X:X>X%X].%X%X%X>X:X>X>X:X).[ W +X*X XQ }.&XT P %X>X>X&X%XC : P [ E ] Y.h.Y +X(.(.).).(.(.(.(.^.(.~.^.^.~.!.!.!.I.I.",
"_.].)._._.]._._.].%X].%X%X%X%X%X:X:X%X].6 T 4 8 0 W E 0 5 3 ].%X%X%X].B Y 7 1 4 6 9 e Y j.(.(.(.(.(.(.(.^.~.!.!.!.!.U.I.I.I.H.D.",
"S.D.H.I.~.(.(.)._.).^.(.).(.^.^.^.(.(.%XO.Y j.V.[ Y +.g.W D #X%X%X).%X&.7 P _ 4 3 h.L 5 N.U.U.U.I.W.#X^.^.^.U.l.p.i.i.9.i.9.<.6.",
"k.l.S.D.I.Q.Q./.%X~.I.U.!.~.U.E.!.U.!.!.%.Y I.~.e 5 V./.) g.E././.1XE.$.7 |.` 4 1 f.V.Y N.D.D.P.@X*XL.p.p.s.p.i.i.k.6.6.6.6.6.6.",
"d.d.D.D.U./.Q./.Q.^.Q.^.(.^.^.(.^.^.(.^.%.7 E.Q.Y 5 g.).( g.#X~.(.^.~.&.7 V.~ 4 1 f.}.5 Y.&X#XQ./.#XU.D.S.l.l.d.l.p.s.p.p.i.9.i.",
"r.a.s.s.m.S.m.G.S.G.D.G.H.G.T.G.P.P.T.P.O.: T.E.Y 4 V.E.( L E.E.E.P.T.$.Y f.` Y 6 e.B.7 d.S.S.S.S.S.s.s.A.s.s.s.i.i.9.6.9.9.<.<.",
"G.P.G.n.s.b.n.m.n.S.F.G.T.G.J.G.K G.G.w.' 4 S S V 1 y S 1 * G.T.K.n.n.C ~ g.o.1 1 N B 1 A n.Z.Z.A.n.Z.Z.A.Z.Z.y.a.9.9.<.>.>.=.=.",
"G.G.S.n.n.8.q.n.u.m.F.m.G.m.T.R.m.K.G.M.1 1 O   o - 0 # > 2 Q.T.T.'.G.B 1 + # O O X X O d n.>.Z.8.y.Z.8.8.j *.0.0.1.:.0.7.*.=.*.",
"y.y.n.9.a.b.q.S.m.n.n.G.F.b.K.m.,.G.m.b.8 < m m 2 + t D._ D E.(.^.^.^.[ ; t r o o d d - J S.b.9.S.m.S.S.8.a.q.9.9.0.8.=.-.l l *.",
"A.9.S.y.n.q.c.G.y.n.F.G.n.c.5.n.b.K.F.0.V < y.n.    $ a.O d G.;.F.F.G.o.. F f.< - J e.# d K.R.E.Q.m.m.y.F.A.n.A.y.;.-.=.*.*.:.*.",
"4.9.r.m.n.S.n.b.n.F.F.n.n.n.K.n.3.F.n.n.= . ,.,.. . r m * d Q.N.Q.^.m.D 2 A H     s J . H P.P.s.G.P.m.u.G.G.m.r.r.s.F.3.9.y.r.p.",
"3.s.4.u.n.G.>.n.G.m.q.0.F.b.q.n.m.F.F.m.a p y.v.& & v.H & G '.E.R.).'.B % p x % % H F & K Q.Q.E.Q.G.Q.E.M.D.U.M.m.M.t.n.u.4.9.r.",
"3.:.;.3.2.1.2.;.;.8.y.c.c.c.8.Z.n.n.J.v.a a v.w.N & m m F H M.M.J.M.H B & F f @ % F G & H P.E.P.R.T.R.G.P.M.u.m.M.n.s.,.3.2.4.,.",
"-.8.2.;.:.1.3.8.2.q.5.Z.c.7.2.b.G.P.y.x p a M M f = w.e.f M M.R.R.R.f.w & G Z @ q m m a H y.F.m.m.r.t.d.m.m.b.m.r.r.r.-.8.4.4.<.",
"b b ;.=.v b b b k 1.3.2.1.-.4.b.m.b.y.x f z n M f = f H i c w.u.u.m w.N = A Z & & x H x t.9.P.u.r.3.0.n.u.r.3.y.a.s.9.y.4.6.l c ",
"b k ;.;.b -.-.3.<.9.3.q.4.q.;.7.-.1.v j g i v n x s M z x m w.w.N.w.c s p x p a z ,.m p z m.h h n.<.a.a.r.=.r.8.<.4.6.;.<.8.;.n ",
"n k ;.9.4.q.3.q.b j k k b -.b j k v *.1.v g g v h h s h h M w.b.M b.d.m z i u $ u z x x M 4.;.3.=.h l n k n 3.=.l k g g l :.n b "
};
