/* XPM */
static char *result[] = {
/* columns rows colors chars-per-pixel */
"64 64 5 1 ",
"  c #2A416F",
". c #528C26",
"X c #89E047",
"o c #4D648D",
"O c #E1F7D5",
/* pixels */
"OOOOOOOOOOOOOOOOOOOOOOOOOOOOOOOOOOOOOOOOOOOOOOOOOOOOOOOOOOOOOOOO",
"OOOOOOOOOOOOOOOOOOOOOOOOOOOOOOOOOOOOOOOOOOOOOOOOOOOOOOOOOOOOOOOO",
"OOOOOOOOOOOOOOOOOOOO.OOOOOOOOOOOOOOOOOOOOO.OOOOOOOOOOOOOOOOOOOO.",
".OOOOOOOOOOOOOOOOOO.X.OOOOOOOOOOOOOOOOOOO.X.OOOOOOOOOOOOOOOOOO.X",
"X.OOOOOOOOOOOOOOOOO.XX.OOOOOOOOOOOOOOOOOO.XX.OOOOOOOOOOOOOOOOO.X",
"X.OOOOOOOOOOOOOOOO.XXX.OOOOOOOOOOOOOOOOO.XXX.OOOOOOOOOOOOOOOO.XX",
"X.O....OOOOOOOO   .XXX.O....OOOOOOOOO   .XXX.O....OOOOOOOO   .XX",
"XX.XXX.OOOOOO  ooo  XXX.XXX.OOOOOOO  ooo  XXX.XXX.OOOOOO  ooo  X",
"X.XXXX.OOOOO ooooooo X.XXXX.OOOOOO ooooooo X.XXXX.OOOOO ooooooo ",
" XXXX.OOOOO oo oooo   XXXX.OOOOOO oo oooo   XXXX.OOOOO oo oooo  ",
"o  XX.OOOOO o  oo  ooo  XX.OOOOOO o  oo  ooo  XX.OOOOO o  oo  oo",
"ooo .OOOOOO oooo ooooooo .OOOOOOO oooo ooooooo .OOOOOO oooo oooo",
"oooo OOOOOO ooo ooooooooo OOOOOOO ooo ooooooooo OOOOOO ooo ooooo",
"oooo OOOOOO ooo ooooooooo OOOOOOO ooo ooooooooo OOOOOO ooo ooooo",
"oooo OOOOOOO oo ooooooooo OOOOOOOO oo ooooooooo OOOOOOO oo ooooo",
" ooo OOOOOOOO   oooo  ooo OOOOOOOOO   oooo  ooo OOOOOOOO   oooo ",
"  oo OOOOOOOOOO ooo    oo OOOOOOOOOOO ooo    oo OOOOOOOOOO ooo  ",
" oo OOOOOOOOOOOO ooo  oo OOOOOOOOOOOOO ooo  oo OOOOOOOOOOOO ooo ",
"o  OOOOOOOOOOOOOO  ooo  OOOOOOOOOOOOOOO  ooo  OOOOOOOOOOOOOO  oo",
" OOOOOOOOOOOOOOOOOO   OOOOOOOOOOOOOOOOOOO   OOOOOOOOOOOOOOOOOO  ",
"OOOOOOOOOOOOOOOOOOOOOOOOOOOOOOOOOOOOOOOOOOOOOOOOOOOOOOOOOOOOOOOO",
"OOOOOOOOOOOOOOOOOOOOOOOOOOOOOOOOOOOOOOOOOOOOOOOOOOOOOOOOOOOOOOOO",
"OOOOOOOOOOOOOOOOOOOOOOOOOOOOOOOOOOOOOOOOOOOOOOOOOOOOOOOOOOOOOOOO",
"OOOOOOOOOOOOOOOOOOOO.OOOOOOOOOOOOOOOOOOOOO.OOOOOOOOOOOOOOOOOOOO.",
".OOOOOOOOOOOOOOOOOO.X.OOOOOOOOOOOOOOOOOOO.X.OOOOOOOOOOOOOOOOOO.X",
"X.OOOOOOOOOOOOOOOOO.XX.OOOOOOOOOOOOOOOOOO.XX.OOOOOOOOOOOOOOOOO.X",
"X.OOOOOOOOOOOOOOOO.XXX.OOOOOOOOOOOOOOOOO.XXX.OOOOOOOOOOOOOOOO.XX",
"X.O....OOOOOOOO   .XXX.O....OOOOOOOOO   .XXX.O....OOOOOOOO   .XX",
"XX.XXX.OOOOOO  ooo  XXX.XXX.OOOOOOO  ooo  XXX.XXX.OOOOOO  ooo  X",
"X.XXXX.OOOOO ooooooo X.XXXX.OOOOOO ooooooo X.XXXX.OOOOO ooooooo ",
" XXXX.OOOOO oo oooo   XXXX.OOOOOO oo oooo   XXXX.OOOOO oo oooo  ",
"o  XX.OOOOO o  oo  ooo  XX.OOOOOO o  oo  ooo  XX.OOOOO o  oo  oo",
"ooo .OOOOOO oooo ooooooo .OOOOOOO oooo ooooooo .OOOOOO oooo oooo",
"oooo OOOOOO ooo ooooooooo OOOOOOO ooo ooooooooo OOOOOO ooo ooooo",
"oooo OOOOOO ooo ooooooooo OOOOOOO ooo ooooooooo OOOOOO ooo ooooo",
"oooo OOOOOOO oo ooooooooo OOOOOOOO oo ooooooooo OOOOOOO oo ooooo",
" ooo OOOOOOOO   oooo  ooo OOOOOOOOO   oooo  ooo OOOOOOOO   oooo ",
"  oo OOOOOOOOOO ooo    oo OOOOOOOOOOO ooo    oo OOOOOOOOOO ooo  ",
" oo OOOOOOOOOOOO ooo  oo OOOOOOOOOOOOO ooo  oo OOOOOOOOOOOO ooo ",
"o  OOOOOOOOOOOOOO  ooo  OOOOOOOOOOOOOOO  ooo  OOOOOOOOOOOOOO  oo",
" OOOOOOOOOOOOOOOOOO   OOOOOOOOOOOOOOOOOOO   OOOOOOOOOOOOOOOOOO  ",
"OOOOOOOOOOOOOOOOOOOOOOOOOOOOOOOOOOOOOOOOOOOOOOOOOOOOOOOOOOOOOOOO",
"OOOOOOOOOOOOOOOOOOOOOOOOOOOOOOOOOOOOOOOOOOOOOOOOOOOOOOOOOOOOOOOO",
"OOOOOOOOOOOOOOOOOOOOOOOOOOOOOOOOOOOOOOOOOOOOOOOOOOOOOOOOOOOOOOOO",
"OOOOOOOOOOOOOOOOOOOO.OOOOOOOOOOOOOOOOOOOOO.OOOOOOOOOOOOOOOOOOOO.",
".OOOOOOOOOOOOOOOOOO.X.OOOOOOOOOOOOOOOOOOO.X.OOOOOOOOOOOOOOOOOO.X",
"X.OOOOOOOOOOOOOOOOO.XX.OOOOOOOOOOOOOOOOOO.XX.OOOOOOOOOOOOOOOOO.X",
"X.OOOOOOOOOOOOOOOO.XXX.OOOOOOOOOOOOOOOOO.XXX.OOOOOOOOOOOOOOOO.XX",
"X.O....OOOOOOOO   .XXX.O....OOOOOOOOO   .XXX.O....OOOOOOOO   .XX",
"XX.XXX.OOOOOO  ooo  XXX.XXX.OOOOOOO  ooo  XXX.XXX.OOOOOO  ooo  X",
"X.XXXX.OOOOO ooooooo X.XXXX.OOOOOO ooooooo X.XXXX.OOOOO ooooooo ",
" XXXX.OOOOO oo oooo   XXXX.OOOOOO oo oooo   XXXX.OOOOO oo oooo  ",
"o  XX.OOOOO o  oo  ooo  XX.OOOOOO o  oo  ooo  XX.OOOOO o  oo  oo",
"ooo .OOOOOO oooo ooooooo .OOOOOOO oooo ooooooo .OOOOOO oooo oooo",
"oooo OOOOOO ooo ooooooooo OOOOOOO ooo ooooooooo OOOOOO ooo ooooo",
"oooo OOOOOO ooo ooooooooo OOOOOOO ooo ooooooooo OOOOOO ooo ooooo",
"oooo OOOOOOO oo ooooooooo OOOOOOOO oo ooooooooo OOOOOOO oo ooooo",
" ooo OOOOOOOO   oooo  ooo OOOOOOOOO   oooo  ooo OOOOOOOO   oooo ",
"  oo OOOOOOOOOO ooo    oo OOOOOOOOOOO ooo    oo OOOOOOOOOO ooo  ",
" oo OOOOOOOOOOOO ooo  oo OOOOOOOOOOOOO ooo  oo OOOOOOOOOOOO ooo ",
"o  OOOOOOOOOOOOOO  ooo  OOOOOOOOOOOOOOO  ooo  OOOOOOOOOOOOOO  oo",
" OOOOOOOOOOOOOOOOOO   OOOOOOOOOOOOOOOOOOO   OOOOOOOOOOOOOOOOOO  ",
"OOOOOOOOOOOOOOOOOOOOOOOOOOOOOOOOOOOOOOOOOOOOOOOOOOOOOOOOOOOOOOOO",
"OOOOOOOOOOOOOOOOOOOOOOOOOOOOOOOOOOOOOOOOOOOOOOOOOOOOOOOOOOOOOOOO"
};
