/* XPM */
static char *_b85af2c49994c91844b6d752733b37ceMAzr5s1yPHuTG0f[] = {
/* columns rows colors chars-per-pixel */
"64 64 6 1 ",
"  c #528C26",
". c #F19233",
"X c #89E047",
"o c #F7C578",
"O c #F5CAC3",
"+ c #F8EAEA",
/* pixels */
"OOOOOOOOOOOOOOOOOOOOOOOOOOOOOOOOOOOOOOOOOOOOOOOOOOOOOOOOOOOOOOOO",
"OOOOOOOOOOOOOOOOOOOOOOOOOOOOOOOOOOOOOOOOOOOOOOOOOOOOOOOOOOOOOOOO",
"OOOOOOOOOOOOOOOOO  OOOOOOOOOOOOOOOOOOOO  OOOOOOOOOOOOOOOOOOO  OO",
"OOOOOOOOOOOOOOOOO X OOOOOOOOOOOOOOOOOOO X OOOOOOOOOOOOOOOOOO X O",
"OOOOOOOOOOOOOOOOO XX OOOOOOOOOOOOOOOOOO XX OOOOOOOOOOOOOOOOO XX ",
" OOOOOOOOOOOOOOOOO XX OOOOOOOOOOOOOOOOOO XX OOOOOOOOOOOOOOOOO XX",
" ...OOOOOOOOOOOOO.. X ...OOOOOOOOOOOOOO.. X ...OOOOOOOOOOOOO.. X",
"oooo.OOOOOOOOOOO.ooo.oooo.OOOOOOOOOOOO.ooo.oooo.OOOOOOOOOOO.ooo.",
".oooo.OOOOOOOOO.oo+oo.oooo.OOOOOOOOOO.oo+oo.oooo.OOOOOOOOO.oo+oo",
".oooo.OOOOOOOOO.o++oo.oooo.OOOOOOOOOO.o++oo.oooo.OOOOOOOOO.o++oo",
"o.ooo.OOOOOOOOO.o+oooo.ooo.OOOOOOOOOO.o+oooo.ooo.OOOOOOOOO.o+ooo",
"o.ooo.OOOOOOOOO.oooooo.ooo.OOOOOOOOOO.oooooo.ooo.OOOOOOOOO.ooooo",
"ooooo.OOOOOOOOO.oooooooooo.OOOOOOOOOO.oooooooooo.OOOOOOOOO.ooooo",
"oooo.OOOOOOOOOOO.oooooooo.OOOOOOOOOOOO.oooooooo.OOOOOOOOOOO.oooo",
"ooo.OOOOOOOOOOOOO.oooooo.OOOOOOOOOOOOOO.oooooo.OOOOOOOOOOOOO.ooo",
"...OOOOOOOOOOOOOOO......OOOOOOOOOOOOOOOO......OOOOOOOOOOOOOOO...",
"OOOOOOOOOOOOOOOOOOOOOOOOOOOOOOOOOOOOOOOOOOOOOOOOOOOOOOOOOOOOOOOO",
"OOOOOOOOOOOOOOOOOOOOOOOOOOOOOOOOOOOOOOOOOOOOOOOOOOOOOOOOOOOOOOOO",
"OOOOOOOOOOOOOOOOOOOOOOOOOOOOOOOOOOOOOOOOOOOOOOOOOOOOOOOOOOOOOOOO",
"OOOOOOOOOOOOOOOOOOOOOOOOOOOOOOOOOOOOOOOOOOOOOOOOOOOOOOOOOOOOOOOO",
"OOOOOOOOOOOOOOOOOOOOOOOOOOOOOOOOOOOOOOOOOOOOOOOOOOOOOOOOOOOOOOOO",
"OOOOOOOOOOOOOOOOOOOOOOOOOOOOOOOOOOOOOOOOOOOOOOOOOOOOOOOOOOOOOOOO",
"OOOOOOOOOOOOOOOOOOOOOOOOOOOOOOOOOOOOOOOOOOOOOOOOOOOOOOOOOOOOOOOO",
"OOOOOOOOOOOOOOOOOOOOOOOOOOOOOOOOOOOOOOOOOOOOOOOOOOOOOOOOOOOOOOOO",
"OOOOOOOOOOOOOOOOOOOOOOOOOOOOOOOOOOOOOOOOOOOOOOOOOOOOOOOOOOOOOOOO",
"OOOOOOOOOOOOOOOOO  OOOOOOOOOOOOOOOOOOOO  OOOOOOOOOOOOOOOOOOO  OO",
"OOOOOOOOOOOOOOOOO X OOOOOOOOOOOOOOOOOOO X OOOOOOOOOOOOOOOOOO X O",
"OOOOOOOOOOOOOOOOO XX OOOOOOOOOOOOOOOOOO XX OOOOOOOOOOOOOOOOO XX ",
" OOOOOOOOOOOOOOOOO XX OOOOOOOOOOOOOOOOOO XX OOOOOOOOOOOOOOOOO XX",
" ...OOOOOOOOOOOOO.. X ...OOOOOOOOOOOOOO.. X ...OOOOOOOOOOOOO.. X",
"oooo.OOOOOOOOOOO.ooo.oooo.OOOOOOOOOOOO.ooo.oooo.OOOOOOOOOOO.ooo.",
".oooo.OOOOOOOOO.oo+oo.oooo.OOOOOOOOOO.oo+oo.oooo.OOOOOOOOO.oo+oo",
".oooo.OOOOOOOOO.o++oo.oooo.OOOOOOOOOO.o++oo.oooo.OOOOOOOOO.o++oo",
"o.ooo.OOOOOOOOO.o+oooo.ooo.OOOOOOOOOO.o+oooo.ooo.OOOOOOOOO.o+ooo",
"o.ooo.OOOOOOOOO.oooooo.ooo.OOOOOOOOOO.oooooo.ooo.OOOOOOOOO.ooooo",
"ooooo.OOOOOOOOO.oooooooooo.OOOOOOOOOO.oooooooooo.OOOOOOOOO.ooooo",
"oooo.OOOOOOOOOOO.oooooooo.OOOOOOOOOOOO.oooooooo.OOOOOOOOOOO.oooo",
"ooo.OOOOOOOOOOOOO.oooooo.OOOOOOOOOOOOOO.oooooo.OOOOOOOOOOOOO.ooo",
"...OOOOOOOOOOOOOOO......OOOOOOOOOOOOOOOO......OOOOOOOOOOOOOOO...",
"OOOOOOOOOOOOOOOOOOOOOOOOOOOOOOOOOOOOOOOOOOOOOOOOOOOOOOOOOOOOOOOO",
"OOOOOOOOOOOOOOOOOOOOOOOOOOOOOOOOOOOOOOOOOOOOOOOOOOOOOOOOOOOOOOOO",
"OOOOOOOOOOOOOOOOOOOOOOOOOOOOOOOOOOOOOOOOOOOOOOOOOOOOOOOOOOOOOOOO",
"OOOOOOOOOOOOOOOOOOOOOOOOOOOOOOOOOOOOOOOOOOOOOOOOOOOOOOOOOOOOOOOO",
"OOOOOOOOOOOOOOOOOOOOOOOOOOOOOOOOOOOOOOOOOOOOOOOOOOOOOOOOOOOOOOOO",
"OOOOOOOOOOOOOOOOOOOOOOOOOOOOOOOOOOOOOOOOOOOOOOOOOOOOOOOOOOOOOOOO",
"OOOOOOOOOOOOOOOOOOOOOOOOOOOOOOOOOOOOOOOOOOOOOOOOOOOOOOOOOOOOOOOO",
"OOOOOOOOOOOOOOOOOOOOOOOOOOOOOOOOOOOOOOOOOOOOOOOOOOOOOOOOOOOOOOOO",
"OOOOOOOOOOOOOOOOOOOOOOOOOOOOOOOOOOOOOOOOOOOOOOOOOOOOOOOOOOOOOOOO",
"OOOOOOOOOOOOOOOOO  OOOOOOOOOOOOOOOOOOOO  OOOOOOOOOOOOOOOOOOO  OO",
"OOOOOOOOOOOOOOOOO X OOOOOOOOOOOOOOOOOOO X OOOOOOOOOOOOOOOOOO X O",
"OOOOOOOOOOOOOOOOO XX OOOOOOOOOOOOOOOOOO XX OOOOOOOOOOOOOOOOO XX ",
" OOOOOOOOOOOOOOOOO XX OOOOOOOOOOOOOOOOOO XX OOOOOOOOOOOOOOOOO XX",
" ...OOOOOOOOOOOOO.. X ...OOOOOOOOOOOOOO.. X ...OOOOOOOOOOOOO.. X",
"oooo.OOOOOOOOOOO.ooo.oooo.OOOOOOOOOOOO.ooo.oooo.OOOOOOOOOOO.ooo.",
".oooo.OOOOOOOOO.oo+oo.oooo.OOOOOOOOOO.oo+oo.oooo.OOOOOOOOO.oo+oo",
".oooo.OOOOOOOOO.o++oo.oooo.OOOOOOOOOO.o++oo.oooo.OOOOOOOOO.o++oo",
"o.ooo.OOOOOOOOO.o+oooo.ooo.OOOOOOOOOO.o+oooo.ooo.OOOOOOOOO.o+ooo",
"o.ooo.OOOOOOOOO.oooooo.ooo.OOOOOOOOOO.oooooo.ooo.OOOOOOOOO.ooooo",
"ooooo.OOOOOOOOO.oooooooooo.OOOOOOOOOO.oooooooooo.OOOOOOOOO.ooooo",
"oooo.OOOOOOOOOOO.oooooooo.OOOOOOOOOOOO.oooooooo.OOOOOOOOOOO.oooo",
"ooo.OOOOOOOOOOOOO.oooooo.OOOOOOOOOOOOOO.oooooo.OOOOOOOOOOOOO.ooo",
"...OOOOOOOOOOOOOOO......OOOOOOOOOOOOOOOO......OOOOOOOOOOOOOOO...",
"OOOOOOOOOOOOOOOOOOOOOOOOOOOOOOOOOOOOOOOOOOOOOOOOOOOOOOOOOOOOOOOO",
"OOOOOOOOOOOOOOOOOOOOOOOOOOOOOOOOOOOOOOOOOOOOOOOOOOOOOOOOOOOOOOOO"
};
