/* XPM */
static char *b21b2cd8cc0f4ad7f6e09a337f9b3426LvmsgMHehtRiHdcU[] = {
/* columns rows colors chars-per-pixel */
"64 64 79 1 ",
"  c #170D03",
". c #251404",
"X c #331C06",
"o c #412408",
"O c #4F2C0A",
"+ c #5D340C",
"@ c #6B3C0E",
"# c #0F6A0D",
"$ c #11770E",
"% c #784410",
"& c #554130",
"* c #5F4834",
"= c #694F39",
"- c #695239",
"; c #73573E",
": c #73583D",
"> c #7D5F43",
", c #7D5E44",
"< c #7D6044",
"1 c #854C12",
"2 c #AC6418",
"3 c #876549",
"4 c #876748",
"5 c #916F4D",
"6 c #916E4E",
"7 c #9B7353",
"8 c #9B7653",
"9 c #A57F57",
"0 c #A57B58",
"q c #138510",
"w c #159312",
"e c #17A114",
"r c #16AE16",
"t c #19AF16",
"y c #1BBD18",
"u c #1ACA1A",
"i c #1DCB1A",
"p c #1FD91C",
"a c #22E222",
"s c #25E222",
"d c #32E430",
"f c #3FE63E",
"g c #4CE84C",
"h c #5AEA5A",
"j c #68EC68",
"k c #AB8661",
"l c #B08E6B",
"z c #B59675",
"x c #BA9E7F",
"c c #EE6CEF",
"v c #F07AF0",
"b c #74CCF4",
"n c #BFA689",
"m c #F288F2",
"M c #F496F4",
"N c #F5A4F5",
"B c #F7B2F7",
"V c #82D1F5",
"C c #90D6F6",
"Z c #9EDBF7",
"A c #97E7E1",
"S c #ACE0F8",
"D c #BAE5F9",
"F c gray81",
"G c #D7D7D7",
"H c #DFDFDF",
"J c #F8C0F8",
"K c #FACEFA",
"L c #FBDCFB",
"P c #C8EAFA",
"I c #D6EFFB",
"U c #E7E7E7",
"Y c #EFEFEF",
"T c #FDEAFD",
"R c #E4F4FC",
"E c gray97",
"W c #F2FAFE",
"Q c #FEF8FE",
"! c white",
/* pixels */
"AAAAAAAAAAAAAAAAAAAAAAAAAAAAAAAAAAAAAAAAAAAAAAAAAAAAAAAAAAAAAAAA",
"!AAAAAAAAAAAAAAAAAAAAAAAAAAAAAAAAAAAAAAAAAAAAAAAAAAAAAAAAAAAA!!!",
"!!!!AAAAAAAAAAAAAAAAAAAAAAAAAAAAAAAAAAAAAAAAAAAAAAAAAAAAAAAA!!EY",
"UF!!!AAAAAAAAAAAAAAAAAAAAAAAAAAAAAAAAAAAAAAAAAAAAAAAA!!!!EUYYHE!",
"!HFYHFG!AAAAAAAAAAAAAAAAAAAAAAAAAAAAAAAAAAAAAAAAAAAA!!!YEEEE!UY!",
"UYUE!!G!!AAAAAAAAAAAAAAAAAAAAAAAAAAAAAAAAAAAAAAAAA!!Y!EYEEYEEEEY",
"E!EEYY!YEAAAAAAAAAAAAAAAAAAAAAAAAAAAAAAAAAAAAAAAA!E!EEYYUYEE!!!!",
"UHYEYUY!AAAAAAAAAAAAAAAAAAAAAAAAAAAAAAAAAAAAAAAAA!!EEEE!!!!YEEUY",
"EEE!!!AAAAAAAAAAAAAAAAAAAAAAAAAAAAAAAAAAAAAAAAAAAAAAA!EEEYYEEY!!",
"!!!AAAAAAAAAAAAAAAAAAAAAAAAAvmMNBmAAAAAAAAAAAAAAAAAAAAA!!EYEEEYE",
"AAAAAAAAAAAAAAAAAAAAAAAAcvvNvNNBmvcvvAAAAAAAAAAAAAAAAAAAA!!!!AAA",
"AAAAAAAAAAAAAAAAAAAAAAvccvmcNMBTmccvmNMMAAAAAAAAAAAAAAAAAAAAAAAA",
"AAAAAAAAAAAAAAAAAAAAAcvccNcNMvmJmcvNvmmMMvAAAAAAAAAAAAAAAAAAAAAA",
"AAAAAAAAAAAAAAAAAANMMvMvvMBmmcNmvBmMNvvmmvcNAAAAAAAAAAAAAAAAAAAA",
"AAAAAAAAAAAAAAAAvvcMMMBNMBNvMMMvcMmvvccmMMmvvAAAAAAAAAAAAAAAAAAA",
"AAAAAAAAAAAAAAAmcvMNJJmMMBKMMMcNBmmMcvvvmNBBmMAAAAAAAAAAAAAAAAAA",
"AAAAAAAAAAAAAAcmmMmmcvJMmmmBNNMvmLMmNvBQJmvvvmmAAAAAAAAAAAAAAAAA",
"AAAAAAAAAAAAAANcmMvccvcMmcvMMmNvmmvMLKBmvvvmMmvAAAAAAAAAAAAAAAAA",
"AAAAAAAAAAAAAcMcvJvcmccMvcmmcNvvcmmmmvvccMmvcvNAAAAAAAAAAAAAAAAA",
"AAAAAAAAAAAAAcmmmvcmmcvmmmNmmMmmmmmvcMvmmMvMmvNBvAAAAAAAAAAAAAAA",
"AAAAAAA!!!EYYcMvvvcmcvJMNNmMvmvvmBvmNmcmvmvmmvMBmMAAAAAAAAAAAAAA",
"AAAAA!!!GYYHEccNJmmmvmLmvNmmcmcmMmvmvvvmvmNMMvvMvmmAAAAAAAAAAAAA",
"AAAA!!GEY!EYY!cmvvmMccNmNMMcvcvMcBvvBvNMvMNmcNMmBmmAAAAAAAAAAAAA",
"AAAA!YHU!YYU!E!vmMmMMBNNvmcmmvvvvcvcvvcvmvMJBJvNMMcE!AAAAAAAAAAA",
"AA!!E!!!YEYEE!UYccmmMmvMmcvvccccMvcMvMvNmJNvmNvvMvv!YUEAAAAAAAAA",
"AA!EE!!!!!!!UU!!!!!mMJKQc%@vmJAAAvvvvmMmLBmmBmNvBcvYG!EY!!AAAAAA",
"AAAE!!!AAAAA!U!AAAAAAAAAAAo2@o@AAAAmvmNNmvvmMmmMMccEEYUEYEE!!AAA",
"AAAAAAAAAAAAAAAAAAAAAAAAAAAA%@o+AAAoocvMccBKmBMvcv!!YEEYYUE!!AAA",
"AAAAAAAAAAAAAAAAAAAAAAAAAAAAA@1OOooooAAAAAmvvvcvEYEEE!!!!!!!AAAA",
"AAAAAAAAAAAAAAAAAAAAAAAAAAAAAA1+@oooAAAAAAAAAAAAAAAA!EYAAAAAAAAA",
"AAAAAAAAAAAAAAAAAAAAAAAAAAAAAAAo+OoAAAAAAAAAAAAAAAAAAAAAAAAAAAAA",
"AAAAAAAAAAAAAAAAAAAAAAAAAAAAAAAoOOAAAAAAAAAAAAAAAAAAAAAAAAAAAAAA",
"AAAAAAAAAAAAAAAAAAAAAAAAAAAAAA%oOoAAAAAAAAAAAAAAAAAAAAAAAAAAAAAA",
"AAAAAAAAAAAAAAAAAAAAAAAAAAAAAAOO+oAAAAAAAAAAAAAAAAAAAAAAAAAAAAAA",
"AAAAAAAAAAAAAAAAAAAAAAAAAAAAAAOO+oAAAAAAAAAAAAAAAAAAAAAAAAAAAAAA",
"AAAAAAAAAAAAAAAAAAAAAAAAAAAAAo++ooAAAAAAAAAAAAAAAAAAAAAAAAAAAAAA",
"AAAAAAAAAAAAAAAAAAAAAAAAAAAAA+oOoAAAAAAAAAAAAAAAAAAAAAAAAAAAAAAA",
"AAAAAAAAAAAAAAAAAAAAAAAppppiOoOoOppAAAAAAAAAAAAAAAAAAAAAAAAAAAAA",
"bbbbbbbbbbbbbbbbbbpipipiteqOOoOO+oppbbbbbbbbbbbbbbbbbbbbbbbbbbbb",
"bbbbbCVCVCVVbbippppyteeetyy+ooO@o+oghfbbbbbbbbbbbbbbbbbbbbbbbbbb",
"bbbVVSWVCVbyipisdsdpiiippspOo+ooOOOdgdfbbbbbbbbbbbbbbbCCRZbbbbbb",
"bbbbbbbbbtiiisssdppppddfsiiisaasppdaggfhbbbbVVVCCVZVSDPZbbbbbbbb",
"bbbbbbetyiiiiiipfgjhdgfhgggssypddffpppipbbCSCCCZVZCCCbbbbbbbbbbb",
"bbbqqwtyiiippsfffdfffhgjgfdpdfjhgfppdsspbZVbbbbbbbbbbbbbbbbbbbbb",
"bqqwetiippipipfdpyysfhfdspddggfdssppsiytbbbbbbbbbbbbbbbbbbbbbbbb",
"qwetyyiiiiyiiippfghjfdpisfgfspppitwq#333bbbbbbbbbbbbbbbbbbbbbbqq",
"tippiyyyyyyipsfddsipipspspppiitewqq3333bbbbbbbbbbbbbbbbbbbbbbqqq",
"tipddssiyyipppiyiiippppiiipiteqq3;>3388bbVVCVCbbbbbbbbbbbbbeweee",
"tisfdspytttyiiiyiiiiiiiiiiytw886>33Xo6bbDIZVCVCVCZZZWVbbtwqqtyyy",
"ysdgdppyyyyiiiittttyiiixl86333>333>o <bbbbZICZZCVbbbbbytwetyspiy",
"eyissppyyyyiyteqwelklk983333>;33>;33.Xbbbbbbbbbbbbbbbytewtyispiy",
"tiiiytttyytewqqq$69z9803383>>>;>3338o..bbbbbbbbbbbpiyewetipipiyt",
"tiyyiyiiytewqq6;6kk86333o.=;;3333338boXXbbbbbbbbpdsyteeyippipiyt",
"eewwtyiyewq86>38833383>;Xo33833:3386bbbbbbbbeisgfdptytypiyttyiit",
"eewwtyytw8>;>33333;>>;>.Xo33::3383&bbbbbqqweidtudiitippfsspyppit",
"eeewttlk;=;3>3>;>>83;>Xoo333,88633bbbqqwtypdddrtdppppddffspppiyt",
"iiiq6==;>33883333>>633>36668886368bqqetpfgfdfdddsippsddgfdspyyyt",
"ppp3;,>>333333>>6>;;;*668886;3688qqweisfhgddddsipisfdgffgdsiyyyy",
"pppe3333>>>>>=33;>;388886330kkeqqwtysfdfddfhfddidddfdffdsyiiyiyy",
"issyeq836>333=668888866606lniyeqetissddfpippppssdssdffdpyyiiiiyi",
"eyyyytttl0<6-77883333886kyppiyteypddfdppteeypddsspsffdpyttiiiiyi",
"wtttytyiiiissitewwtyipippippipiiddgffdyteetsdddisdddpiiiyyiyyyti",
"tsdddipdpiiyyeqwetiiipippipiipiipsfdiyetyissspppsspppppiyyyyyyyi",
"tipppiipiipyyiyiiyiiipipittetpppipdiyteysddddddspiddddiiyiiiiyyt"
};
