/* XPM */
static char *fc5d55657c514bd2d8170888d6ef57abJ2K0UqbzVICZoUgZ[] = {
/* columns rows colors chars-per-pixel */
"64 64 256 2 ",
"   c #0C0A16",
".  c #151526",
"X  c #0D152B",
"o  c #2D172A",
"O  c #102837",
"+  c #312B38",
"@  c #350C15",
"#  c #730316",
"$  c #76102B",
"%  c #4D2E37",
"&  c #712E37",
"*  c #4D1425",
"=  c #1A3748",
"-  c #0B334E",
";  c #2E374C",
":  c #241866",
">  c #741248",
",  c #4C344C",
"<  c #6A354B",
"1  c #58276C",
"2  c #02495A",
"3  c #164854",
"4  c #274858",
"5  c #384857",
"6  c #344C51",
"7  c #004C64",
"8  c #034B69",
"9  c #01536B",
"0  c #035969",
"q  c #18566A",
"w  c #014B7A",
"e  c #035975",
"r  c #175C76",
"t  c #174766",
"y  c #285768",
"u  c #385769",
"i  c #285A75",
"p  c #375A72",
"a  c #314A67",
"s  c #046678",
"d  c #186678",
"f  c #0D6C74",
"g  c #276879",
"h  c #376678",
"j  c #306C71",
"k  c #4E4E58",
"l  c #6E4D56",
"z  c #475767",
"x  c #575767",
"c  c #4F526F",
"v  c #775866",
"b  c #6B5370",
"n  c #486877",
"m  c #576878",
"M  c #57757B",
"N  c #4D6B70",
"B  c #666976",
"V  c #766976",
"C  c #747678",
"Z  c #6C6D6F",
"A  c #6A655E",
"S  c #46413F",
"D  c #900316",
"F  c #A60013",
"G  c #92162E",
"H  c #AF1331",
"J  c #8F2530",
"K  c #A22038",
"L  c #CF0F34",
"P  c #CF1231",
"I  c #92184B",
"U  c #903050",
"Y  c #AF2D4F",
"T  c #A71D5B",
"R  c #D11546",
"E  c #CE195D",
"W  c #8C504E",
"Q  c #AB4D5B",
"!  c #8E566C",
"~  c #856977",
"^  c #8F7172",
"/  c #A76B78",
"(  c #AE7072",
")  c #A9605F",
"_  c #CD6F76",
"`  c #E6626F",
"'  c #94483A",
"]  c #6E857D",
"[  c #4D8177",
"{  c #8D857C",
"}  c #B48C7C",
"|  c #CA8C7B",
" . c #2E1F87",
".. c #5D3494",
"X. c #005B86",
"o. c #005091",
"O. c #046886",
"+. c #196C84",
"@. c #047789",
"#. c #177789",
"$. c #036B93",
"%. c #057895",
"&. c #197A94",
"*. c #166D98",
"=. c #276B84",
"-. c #396884",
";. c #277889",
":. c #387586",
">. c #267C93",
",. c #397993",
"<. c #225B9F",
"1. c #565688",
"2. c #57568F",
"3. c #6D5295",
"4. c #466A84",
"5. c #586989",
"6. c #477889",
"7. c #597887",
"8. c #5C6998",
"9. c #587995",
"0. c #497696",
"q. c #687986",
"w. c #797886",
"e. c #676B9A",
"r. c #6F7194",
"t. c #7572AB",
"y. c #5F53AC",
"u. c #2370D0",
"i. c #7E5BC3",
"p. c #867985",
"a. c #8E7590",
"s. c #A87789",
"d. c #8577AB",
"f. c #887BB6",
"g. c #9377B4",
"h. c #8B5D9E",
"j. c #C87B8A",
"k. c #EA7B90",
"l. c #9254CE",
"z. c #9475CA",
"x. c #A370D7",
"c. c #892CBD",
"v. c #06869A",
"b. c #188599",
"n. c #16949C",
"m. c #0E8B92",
"M. c #29889A",
"N. c #398795",
"B. c #318F95",
"V. c #32A39C",
"C. c #0789A4",
"Z. c #178AA5",
"A. c #0A98A8",
"S. c #1697A8",
"D. c #069CB4",
"F. c #1798B4",
"G. c #0C8EB3",
"H. c #268CA4",
"J. c #2697A7",
"K. c #369BA7",
"L. c #2699B5",
"P. c #3292AE",
"I. c #0BA1AB",
"U. c #07A9B9",
"Y. c #17A8B7",
"T. c #03B6BB",
"R. c #19ACB0",
"E. c #27A8B7",
"W. c #27B7B7",
"Q. c #30ACAF",
"!. c #57868A",
"~. c #478897",
"^. c #588896",
"/. c #57979A",
"(. c #4B9192",
"). c #65868B",
"_. c #77848A",
"`. c #678799",
"'. c #798996",
"]. c #779899",
"[. c #6A9692",
"{. c #6FA79A",
"}. c #4698A7",
"|. c #5595A7",
" X c #6897A5",
".X c #7393A8",
"XX c #57A5A9",
"oX c #4DAFB1",
"OX c #72B0AE",
"+X c #5AA79F",
"@X c #14C7BA",
"#X c #29C5B6",
"$X c #75C5B8",
"%X c #4FC5BA",
"&X c #18A8C4",
"*X c #0AB6C7",
"=X c #18B6C8",
"-X c #12B3D0",
";X c #28B6C5",
":X c #35B8C8",
">X c #2CAFCA",
",X c #0F8FF7",
"<X c #2396D9",
"1X c #4EB4CA",
"2X c #75B9C5",
"3X c #0AC5C9",
"4X c #16C6C9",
"5X c #18C9D3",
"6X c #2DCAD0",
"7X c #2BCFE6",
"8X c #14C8E6",
"9X c #4FCAD2",
"0X c #71D2CF",
"qX c #5AD7E8",
"wX c #87878A",
"eX c #988688",
"rX c #969588",
"tX c #888796",
"yX c #989697",
"uX c #8E9294",
"iX c #A99899",
"pX c #B18E8F",
"aX c #8BA698",
"sX c #AFA399",
"dX c #9484BC",
"fX c #8E91AC",
"gX c #AB9AA7",
"hX c #9AA9AA",
"jX c #8DB0B1",
"kX c #ACADAF",
"lX c #C79897",
"zX c #CF9390",
"xX c #CDA798",
"cX c #D8B8B6",
"vX c #CCAEAB",
"bX c #E7AEAE",
"nX c #E997A4",
"mX c #87C5B8",
"MX c #B4C6BB",
"NX c #D4C7BA",
"BX c #EAC4B4",
"VX c #9684C6",
"CX c #9986D3",
"ZX c #9AB4C6",
"AX c #ABB7C4",
"SX c #AE8BE3",
"DX c #CAB6C9",
"FX c #D5A6EE",
"GX c #91CECE",
"HX c #B3CACC",
"JX c #ACE8E7",
"KX c #CFC9C8",
"LX c #EED0D0",
"PX c #CCE7F0",
"IX c #F6F0EF",
"UX c #E0DFDB",
/* pixels */
"=X=X%.s !.+ U E E T T b ,.;X;XD.F.Z.v.&.:.,.H.L.Z.(.cX^ ^ IXLXLXNX6 3 - t k U $ o n B.A.U.-X*XU.6X:X@.f [.mXW.W.M kXgXHXoXW.4X@X",
"=X=XD.J.6.o $ Y E E T 3.N.>X&XG.G.F.v.@.=.r L.F.b.~.KXpXvXNXNXNXvXx - - t c U $ + 4.M.v.D.&XU.&X:XS.f N.jXmXR.W.).vXwX{.Q.#X@X@X",
"*X*X-XE.5.% # K E E I b N.:X>X%.C.&X=XC.O.s F.F.F.;.kXbXxXxXaX] { Z 3 3 5.a.I I ; N.b.v.F.F.A.:X:X#.g OXHX{.R.W.).DXh V.#X@X#Xn.",
"*X*X*XE.1.U # D E E U c >.>X:X%.%.S.&X&Xb.s E.F.S.>.hXLXxXrX[.N rX{ 3 h m s.Y K a M.v.C.F.A.A.:XQ.d h ZXhX{.W.W. XjXB.#X@X#XV.N.",
"-XD.D.P.b U H D D U U b +.;X>XQ.d g K.oXK.s Z.S.S.#.!.'.m m ].aXkXuX3 h M eXK I p Z.S.C.S.C.E.:Xb.g aXMXrXjXQ.#X~.|.W.@X#XQ.:.9.",
"=X&XD.P.! Y R H # & U b #.E.E.1XoX}.K.B.M.#.&.b.Z.b.2 - - 6.].hXhXaX4 u n gXQ > :.S.F.C.C.v.W.Q.#.j aXrXrXkXQ.W.M.V.#X#XQ.>.9.5.",
"*X=XU.J.v Y R R # * U b &.>XP.1X1X9X9X9XN.r #.b.J.m.0 - 7 ~.jXaXjXmXy 3 j [.s.% N.S.Z.C.v.S.W.n.f /.jXrXrXMX%XW.W.#X#XQ.N.9.8.2.",
"T.U.T.Q.l Y R R D $ U b &.:XM.1X9XR.9X9X~.i >.H.Z.b.@.@.b.}.[.aX{.mX6.y /.[.eX; M.S.%.%.v.E.W.m.f /.aX{ { HXoXW.#X#X#XB.9.e.1.2.",
"3XT.T.Q.l H L L D G U V &.:X,.^.XXXXGX0X/.j #.L.H.Z.C.L.}.+X[.jXjX`.-.4.6.7.B 6 M.S.v.v.A.:XF.#.(.aXaXrXpXNX$X%X#X%XN.9.e.1.1.2.",
"3X3XT.K.l H L L F G Y ! ;.1X0.`.].[.2XXXmX(.+.H.H.Z.Z.P.~.jXmXjXHXc 2.0.-.h n h b.S.C.v.Y.Y.C.H.OXaXuXrXsXNXOXoX%XB.^.r.1.1.1.8.",
"U.4X5XoXv H R L F K Y s.`.2X^.q.fX^.m.m.XXOX+.b.Z.b.%.M..X].mXGXfX3.t.4.,.~.h ;.n.A.A.A.W.I.C.P..XC uXkXpXvXMXOX|.9.8.1.1.1.2.e.",
"Y.A.*XoX! H L L F G Q nXgXIXfX_.hX`.M.J.N.XX#.b.H.b.B.(.hXAXGX Xt.3.t.8.=.N.=.#.n.A.A.I.;XI.F.Q.^._.kXsX{ vXHX.X5.e.1.c 1.e.e.e.",
"A.W.Y.XXU L L H D K Y nXgXIXw.B hX).N.M.(.N.B.n.Z.#.OXHXkXKXJX^.d.h.h.t.,.#.+.&.A.I.v.S.Y.A.Y.Q./.wXiXeXsXyXq.r.e.2.1.1.2.t.t.e.",
"E.R.S. XY L R H G K Y nXpXkX_.z ).!.XXXX:.j }.M.Z.&.jXKXkXPXGX}..Xd.h.3.,.s +.H.A.I.v.v.I.I.Y.Q.{.hXyXwXhXm 5.r.e.2.2.t.t.t.t.e.",
"1Xb.P.`.U R R R P K Y k.lXDX]./.XX9X0X0Xh j (.B.Z.>.z kXMXPXQ.J.XXt.h.b i 9 &.Z.S.F.v.v.A.W.:XK.[.uXuXaX!.y 9.8.5.8.8.t.t.e.t.t.",
"GXXX0 5.U P L L R H Y k.pXkXjXOXoX%X0X0XjXN !.N.b.M.N A uXOXE.Y.}.`.d.r.h d H.b.S.S.S.S.b.oXoXq 6 ] aX[.q :.9.8.8.8.t.t.t.t.f.r.",
"jXjX XB $ K P L R R Y nXk ; ].aX{.(.$XJXHXyX_..XM.M.y z aX$XW.Y.B.jX'.]./.d H.O.A.I.Y.J.!._.q.5 u aX Xy g ~.9.e.e.t.t.t.t.dXf.r.",
"UXhX'.V $ D H H R R Y bXz 6 w.w.[.OXOX!.aXkXtXOXH.M.-.a hXGXQ.S.OXOX{.!.XXe &.b.S.I.R.}.tX! ~ x z OXj g !.jXjX5.t.t.t.t.f.f.d.t.",
"sXKXkXs.G D D D K Y Y bXN n b 3..X/.n.V.hXkXtX`.M.M.h c wXHXoXQ.mXOX$XoXB.s b.Z.S.S.K. XeX/ s.B p g g n uXKXgXr.d.d.f.t.d.d.dXdX",
"vXLXcXzXK F D # $ J Q bXN p 3.3.9.N.n.V.hXiXkX`.M.H.y z kXkX/.$X$X{.OXoXoXO.H.Z.S.J.V.OX^ ) s.B i =.^.uXNXcXvXa.d.d.f.d.d.dXf.t.",
"IXKXxX( H H H D D G Q xXn -.3.3.e.~.n.}.sXpXyX7.M.H.q u fXaXOXJX0X0XOXXXK.s J.@.Z.Q.K.OXv ( sXZ y ~.hXKXxXbXLXh.d.t.f.f.dXt.t.t.",
"IXcX} ) H P P F D K W eXu -.3.3.e.~.B.OX^ pXyX7.K.b.=.-.4 '.jXOX$X0XOX(.>.s 1XB.#.;.B./.V pXwXN y !.KXcXBXBXDXg.d.d.dXdXt.t.f.z.",
"IXLXlX_ H L P F F K Q eXy =.3.3.8.9.GXJXsX^ uX`.K.n.+.,.h ZXJXOXGX+X)..Xd b.qXoXOXGXOX^.p.yXn j j jXNXBXNXiXgXd.dXd.d.d.dXVXVXg.",
"UXUXLX_ H L P F F K Q eX6.-.c c '.'.HXMXkX{ B  XM.L.s N.|.jXPXPXOX~. X X;.B.0XOXjXkXaXhXwXB n n u '.UXpXeXyXtXfXdXd.f.dXVXz.f.g.",
"ZXfXkX/ H L P F F K ) p.y i z '.jXmXhXrXMXkXz ^.&.J.#.,.`.fXUXPX#.L.}.:.N./.JXUX] _.{ gXV B C w.+ 6 C C ^ p.yXfXd.VXdXdXVXf.f.dX",
"- - 1.b T H H F D Y W w.4 - ].aXaXOX[.[.] jXn  XH.b.+.,..XfXKXPX>.C.#.d |.[.KXLXkXrXvXcXv V vX^ + N uXC p.p.tXfXdXVXf.dXVXVXVXf.",
"<.: : 1 > T K D D J ! w.u 3 aXaX] ).XX;.:.6.m ZX+.b.s g 9.kXUXPX+.e s f /.M KXvXsXpXxXbX) ( nX( + q.hXw.~ v w.fXdXVXz.z.VXVXCXCX",
"<Xu.<. .: 1 > $ $ U ~ c a 4 aXaXaX!.N.M.;.6.'.fX,.,.r j .XjXPXPXi i g |.~.u vXpXlXzXzXbXbXzX( ) + + ; z V k x tXVXVXVXCXCXz.f.y.",
",X,X,Xu.<. .1 > $ < , = = z yXuX[.N.d +.,.0.kXyXw.fX= 4 ZXGX X`.5.ZXkXAXp n rXlXj.) bXLXNXcXzX/ + = O O x x 5 5.VXCXz.f.t.3...: ",
",X,X,X,X,Xu...1 > > ; = - z ^ A !.j O - =.4.hXiXgXgXc u ZXGX^.p n fXtXhXn n rXxX) Q nXLXKXKX/ ! Z N n ; x Z ; w.VXCX2.....: : : ",
",X,X,X,X,Xu.y.1 I I , ; = z rXv wXZ k O r =.q.wXkXfXa n ZXHX^.-.g 6.jX.X4.7.wXxX( ( bXxXw.HXeXl Z z c ; V ^ ^ iXg.CXi.z.x. . .y.",
"u.u.,X,X,X<Xy.1 I K , ; 3 N KXvXpXpXNX{ y y m _.tXhXu z HXHXm 3 ;.;.4.].7.m yXlXzX_ bXsXw.fXb k C z m x ^ W zXlXdXx.i.SXFXl.x.FX",
"o.o.o.$.u.u.y.1 I I k - - q.IXIXLXcXvXcXkXw.x kXyXwXx z HXZX7.M =.,.JXhXx V iXlX_ Q bXvXr.fXx k m 6 u Z } ( | bXg.CXl.SXFXx.SXx.",
"r +.X.w w w <.1 > > k 3 - q.UXNXKXW pXxXvXvXvXNXNXsXk m AXAX'.7.g ~.IXAXw.p.pXlX( W nXpXw.ZXp.Z 6 O 7.hX} ) ( BXg.SXz.SXFXz.x...",
"`..X^.i r r i a b , ; a 4 q.LX} pX( lXBXcXlX} } } sXk m KXfXtX.Xg 6.].'.yXp.gXeXv < / pXV gX~ ~ k 6  XaX( _ | bXg.SXz.x.FXl.l.c.",
"HXjX4.4..X X XfXfXa.x '.5 m iXvXlX( ^ pX| zX' W } sXk m gXtX; c 4. X].'.tXb v l o   / vXw.w.p.yXx 6 q.w.! | W pXg.z.g.z.FXx.l.c.",
"ZXp = HXHXAXfXAXDXpXl cXx m kXiXlX! lXbX| | J W { Z k k gXgXx x m 7.q.'.w.+ ~ < , o ! b 6.~.`.'.C k V s./ ( @ ^ g.CX3.3.d.SXx...",
"O = a a ZXAXtXa.pX/ W pX% k KXUXLX) / LXnXnX' W pXp.q.m tXp.V w.B x fXq.w.k pX! , , v p.p d -.`.M k ~ pXs.p.V AXVXz.1 1 c d.a.a.",
"; 5 `.- t 9.fXv s./ W bXW l gXgXcX& < / _ zX_ ( / V kX'.p.w.p.hXx B '.gXiXl s.l . , o b a -.=.:.4.5 , x q.n 4 `.f.g.;   X r.tXDX",
"r.z p t O p r., < / W pX) W ~ v cXs.! ! j.bX) l < x _.= B k 5 m N 6 5 B A l l < , . . o ; = r q h ; o x n q q h t.d.; + = 5.w.tX",
"OXy 4.- - 5 V o % s.v l ) & k k iX~ % o ^ lXl o , x z = `.q.; z g g y n m + * l x   . . . X 4 - h 5 + k 5 q d g e.t.a = O , B tX",
"XXq 9.O 5 Z uX+ l ~ l % W l x x iXl A o l ^ ^ l x N u X .X.Xy i #.M.}.~.4.k v < . . X     . = - y 4 + , k y g g e.1.; - X w.x . ",
"|.y 7.X S rX] 6 + x x % W W % A sX% V v ( bX/ eXuX] z 4 |.1X>.#.Z.S.1XM.,.u < @ o . . + o . 5 h y t = 5 5 z j h c a p - . k x . ",
"y 4 7.O iXrX_.5 ; '.B % W & , gXLX^ eXpXlXxXs.~ Z [ u :.0X1Xb.%.C.&X:Xn.&.- , * + ; , k + . ; 7.6.4 n M B 6 O = k , a ; ; + + o ",
"X m fX. eX^ Z z u '.Z l ) W pXDXIX^ vXsXpX} ~ A [.(.q r 1X1XY.A.G.&X9XQ.f y % * + 5 o k o o x 5.7.O N ).'.5   . eXiXw.; + l + o ",
"= p 9.O k yXtXN p .Xq.S % W pXcXLXv iXeX^ ^ ~ p.].j e O.L.:XF.v.C.S.I.n.f h k @ ; 5   + + + a.b B 4 N !.M z X + p.s.w.; k ~ l v ",
":.q i `.z hXkXM h /.7.; . ^ vXLXLXv Z A eXeX^ tXfX:.O.%.L.L.v.v.v.Z.S.m.#.q O   a 4.; k O O '.x z ; N q.).7.= O V p.).n B gXpXs.",
"XXr q OX3 jXkX).:.|.6.= X 6 eXiXs.v C C eX^ ~ p.`.:.O.Z.:X>Xv.v.v.S.L.b.#.- X O i  Xc m - 3 a z = X O 7.7.7.O O wX_.^.i p q.eXs.",
"N.2 ;.}.q  XOXu !.`.h O O = x p.vX^ w.w.p.^ V q.:.d O.v.F.F.Z.Z.Z.S.F.b.;.t i O h 9.c c - g - i q 3 y 7.).M . V yX_.~.;.:.9.yXpX",
"+.s H.K.#.XX/.j ^.^.g i q h N DXKXeXm B C C B 7.:.+.@.@.v.Z.&.b.Z.%.@.@.,.:.r - i n c a - e e r s 0 g h n '.+ V iXtX6.g :.`.gXsX",
"O.X.@.@.S.H.M.=.~.,.d 0 0 ~.M kXKXC [.[._.M [ OX2X=.O.Z.9X1XZ.C.U.6XqX>.=.>.K.M.p m c p +.7 7 #.Z.@.s d :.7.5 , zXj.~ B z m rXeX",
"$.$.O.Z.>XS.&.O.>.>.s s M.XXn jXHXaXjXOX[ !.+XJX2X+.@.:XJX9Xb.C.=X7XqXM.;.>.:XJ.n '.u :.H.@.7 e S.E.J.#.f g n o ! j.s.^ ~ p.pXxX",
"$.$.$.Z.>X$.%.O.O.Z.Z.J.,.:.j $XGX[.).{.+XoX+X$X:.r v.;XqX1XZ.C.*X7X9XH.e e L.K.`.r.4 g J.R.m.9 8 &.J.Q.E.b.0 y w.l l / s._ _ k.",
"$.*.X.X.$.%.O.s P.1XH.s 0 ;.K.0XGX[ M /.0XoX/.!.j d F.&XqXE.&.$.U.5X7XS.0 s b.oX|.7.t q s S.E.Z.e 8 O.n.W.E.@.s 6.M x , U _ ` ` ",
"X.O.*.*.Z.C.C.L.oX}.q 2 f W.9XoXOX!.N.oX6XQ.!.N h #.Y.=XqXv.%.%.U.3X7X4X@.s e =.0.:.0.2 - e Z.E.S.O.7 7 b.E.W.I.m.f g 4 + o U _ ",
"&.Z.O.X.G.7X:Xb.=.=.q #.R.6XoXB.!.j J.6X#XV.h m d J.Y.5X&X%.%.%.*X3X8X5Xs s e r 6.q }.d t 8 s Y.Y.A.O.7 7 @.A.Y.Y.A.@.+.g 4 l l ",
"$.X.$.D.7X6X&.7 t d b.W.E.V.N.[ j B.6X4XQ.M.j g m.;XT.=X&X$.%.@.T.3X3X4XO.e e r 9.i M.M.8 8 7 O.Y.Y.Y.%.9 9 0 @.E.Y.Y.v.@.=.q.V ",
"O.G.-X7X-X%.7 2 r H.:XY.n.#.j j V.#X4X4Xb.d d 0 R.T.T.=XG.%.%.%.*X3X*X=X%.e e 9 -.g m.m.+.- e 7 @.;XA.S.%.7 7 7 s E.Y.;XS.#.:.6.",
"-X7X7XG.$.w e v.;X>XS.@.s d ;.V.6X4X4XR.f d f O.=X*X3X6X%.O.$.$.=X5X*X=XZ.e e e 2 ;.n.A.b.O.7 9 7 %.Y.I.Y.A.9 2 2 f J.Y.=XW.b.M.",
"7X&X%.X.X.X.G.-X&XA.@.7 0 0 @.;X@X4XR.s d d 7 A.5X3XT.Y.O.e O.$.&X-XU.=XF.e w e 2 f W.W.C.Z.9 7 7 7 v.&XU.=Xv.e 9 0 e m.R.;X6XE.",
"&.X.w w $.&X-X&XL.O.7 9 e %.6X4X4X4Xm.d d 0 O.&XU.*X*XY.e e O.O.U.*XU.U.Y.O.w 8 2 0 S.I.D.A.b.2 0 2 7 Z.=XU.Y.C.s 9 9 0 @.S.W.6X",
"w w w C.>X-X&XG.O.8 7 e %.&X*X5X5XI.s r r 0 v.=X*XU.Y.v.9 e O.O.&X5X*X*XU.%.w 8 2 2 @.A.A.D.R.@.2 7 7 9 Y.=XU.&XA.s e 9 9 s S.6X",
"X.X.D.8X-X&XZ.e 7 9 8 $.&XT.3X3XR.s s r 0 s R.T.U.U.Y.@.9 e X.O.U.5X*X*XU.C.w 8 7 2 s F.C.U.U.I.e 8 8 9 0 S.Y.U.-X=XO.9 0 0 f }.",
"$.<X8X8X-XC.e 7 7 7 O.L.Y.*X@X@Xv.s 0 e 0 @.R.T.*X=XA.e e e e s A.*X*X*X*XF.e 8 - 7 7 C.;XU.T.Y.Z.7 8 9 0 0 Y.*X*X-X&XO.0 7 q y "
};
