/* XPM */
static char *d795d2e75cb94a8eb47887ff4ff40ad7nHJYzTG8hLgN95XY[] = {
/* columns rows colors chars-per-pixel */
"64 64 49 1 ",
"  c black",
". c #08080A",
"X c #0F0F12",
"o c #16161A",
"O c #1D1D22",
"+ c #2B2B32",
"@ c #611B13",
"# c #6E1E16",
"$ c #666252",
"% c #6F6A59",
"& c #787260",
"* c #88251B",
"= c #95291D",
"- c #A22C1F",
"; c #AF3021",
": c #BC3323",
"> c #C93725",
", c #D63B27",
"< c #807A67",
"1 c #FFC414",
"2 c #FFCC33",
"3 c #88826E",
"4 c #908A76",
"5 c #97917E",
"6 c #5C9CBA",
"7 c #6A9BB0",
"8 c #7DC1DE",
"9 c #74CCF4",
"0 c #9E9886",
"q c #959EAD",
"w c #92A0B6",
"e c #A6A7B8",
"r c #DEC387",
"t c #E1C385",
"y c #E9C486",
"u c #E9CC8F",
"i c #E3CD93",
"p c #E9CF93",
"a c #93C9E0",
"s c #90D6F6",
"d c #97E7E1",
"f c #ACE0F8",
"g c gray81",
"h c #D7D7D7",
"j c #DFDFDF",
"k c #E7E7E7",
"l c #EFEFEF",
"z c gray97",
"x c white",
/* pixels */
"dddddddddddddddddddddddddddddddddddddddddddddddddddddddddddddddd",
"dddddddddddddddddddddddddddddddddddddddddddddddddddddddddddddddd",
"dddddddddddddddddddddddddddd22222222dxxxddxxxddddddddddddddddddd",
"ddddddddddddddddddddddddd22211111112xzzxxzkzlxxddddddddddddddddd",
"ddddddddddddddddddddddd22211111111xljhlzlxxkzklxxddddddddddddddd",
"dddddddddddddddddddddd22111111111xkxjxzlzzlklxzkhxdddddddddddddd",
"dddddddddddddddddddd2221111111111xllzlzxzzjzzzkljxdddddddddddddd",
"ddddddddddddddddddd222111111111111xjkkllxxxlklxxkddddddddddddddd",
"ddddddddddddddddddd22111111122222222xlz1122xxxxxdddddddddddddddd",
"dddddddddddddddddd2211111112222222222222222222dddddddddddddddddd",
"ddddddddddddddddd221111111222222222222222222222ddddddddddddddddd",
"ddddddddddddddddd221111112222222222222222222222ddddddddddddddddd",
"xddxxxdddddddddd22111111222222222222222222222222dddddddddddddxzj",
"ljlxxxxddddddddd22111111222222222222222222222222ddddddddddddxkhx",
"kzlzxxxxxddddddd22111111222222222222222222222222ddddddddddxzhhkl",
"zlgzlljkzxddddd2211111122222222222222222222222222dddddddjjhzzhhl",
"xzhkkllkllddddd2211111122222222222222222222222222dddddddkjlhkxxx",
"xxxhzzkkxxddddd2211111122222222222222222222222222ddddddddljlgddx",
"dddxzjlzkdddddd2OO1111122222222222222222222222OO2ddddddddddddddd",
"ddddddddddddddd2o X.oOO22222222222222222222O.   2ddddddddddddddd",
"ddddddddddddddd22;,O XXOOOOOO XXo.XOOOOooo o#:,22ddddddddddddddd",
"ddddddddddddddd221;;:>-o+ oXX.Xo.X.Xoo. . ;::,222ddddddddddddddd",
"ddddddddddddddd21111,,;>,,:-;;-:;:>:;::@*#,,22222ddddddddddddddd",
"dddddddddddddddd211111,->,2222oO o2222,;,,222222dddddddddddddddd",
"dddddddddddddddd2111111-:22222   .22222,-2222222dddddddddddddddd",
"dddddddddddddddd2111111,-22222.. X22222,;2222222dddddddddddddddd",
"ddddddddddddddddd211111;;22222   o22222,=222222ddddddddddddddddd",
"ddddddddddddddddd22,,,,-,,:>>>>>>,:::>>,;,,,,22ddddddddddddddddd",
"dddddddddddddddddd2:=:::*->-;;>:;;::;;;--;;;>2dddddddddddddddddd",
"ddddddddddddddddddd2211,;22222222222222:,2222ddddddddddddddddddd",
"ddddddddddddddddddd2211,;12222222222222-,2222ddddddddddddddddddd",
"dddddddddddddddddddd222,-11122222222222;,222dddddddddddddddddddd",
"dddddddddddddddddddddd2,;11112222222222-,2dddddddddddddddddddddd",
"dddddddddddddddddddddd,,-11111122222222-,,dddddddddddddddddddddd",
"dddddddddddddddddddddd,--22221112222222;;,dddddddddddddddddddddd",
"dddddddddddddddddddddd,;-ddd22222222ddd;;,dddddddddddddddddddddd",
"dddddddddddddddddddddd,:;dddddddddddddd>;,dddddddddddddddddddddd",
"9999999999999999iiiiii,--iiiiiiiiiiiiii:>,iiiiii9999999999999999",
"999999999999999999iiii,;*iiiiiiiiiiiiii>-,i999999999999999999999",
"9999999999999999000000,:;iiiiiiiiiiiiii;:,9999999999999999999999",
"999999999999999005&343:=:iiiiiiiiiiiiii>:-9999999999999999999999",
"9999999999999900<5545<:-,0iiiiiiiiiiii9=-;9999999999999999999999",
"999999999999904445545OO. 00iiiiiiiiiiiioOOOiii99999999ssssssss99",
"9999999999sss03445555Ooo %<9iiiiiiiiiii  oO999999999ssssssssssss",
"99999ssssssssaaaaaaaaOoXoa8iiiiiiiiiiii. XOiiii999sssssss9999999",
"99sssssssssss88888aaaO O.uuppiiiiiiiiiio .Oii9999999999999999999",
"99sssss99999999888888777tiiiiiiiiiiiiii6666999999999999999999999",
"999999999999999998888777tiiiiiiiii999996666999999999999999999999",
"99999999999999999888877triiiiiiiiiiiii96666999999999999999999999",
"99999999999999999999966rriiiiiiii9999996666999999999999999999999",
"99999999999999999iiiiiyyyiiiii999999999www9999999999999999999999",
"9999999999999999999999www99999999999999www990000s999999999999999",
"9999999999999999999999www999999999ssssseee05<3<50999999999999999",
"9999999999999999999999www9sssssssssssssee043$3<5&099999999999999",
"9999900000009999999ssseeefssssssssss999w5<3&0&<&0599999999999999",
"99990003<<0000999ssssseee99999999999999wqq8888888899999999999999",
"999003&4&%$50099999999www99999999999999wwq8888888999999999999999",
"9900<34333<3<300999999www99999999999999www8888889999999999999999",
"9988888888888888999999www99999999999999www9999999999ssssss999999",
"99988888888888899999999ww99999999999999ww99999999ssssssssssss999",
"99999988888889999999999ww99999999999999ww9999sssssssssssss999999",
"99999999999999999999999ww99999999999999ww99sssssssssss9999999999",
"99999999999999999999999ww99999999999999ww99999999999999999999999",
"9999999999999999999wwwwww99999999999999wwwwww9999999999999999999"
};
