/* XPM */
static char *result[] = {
/* columns rows colors chars-per-pixel */
"64 64 5 1 ",
"  c #4C2E16",
". c #6B4322",
"X c #CACACA",
"o c #E1F7D5",
"O c #E7E5E3",
/* pixels */
"oooooooooooooooooooooooooooooooooooooooooooooooooooooooooooooooo",
"oooooooooooooooooooooooooooooooooooooooooooooooooooooooooooooooo",
"oooooooooooooooooooooooooo    oooooooooooooooooooooooooooo    oo",
"oooooooooooooooooooooooo  ....  oooooooooooooooooooooooo  ....  ",
" oooooooooooooooooooooo ........ oooooooooooooooooooooo ........",
". oooooooooooooooooooo .......... oooooooooooooooooooo .........",
"..     ooooooooooooooo ..  .......     ooooooooooooooo ..  .....",
".  OOO  ooooooooooooo ... .......  OOO  ooooooooooooo ... ......",
"  OOXOO  oooooooooooo ..........  OOXOO  oooooooooooo ..........",
" OOXXXOO  ooooooooooo ..  .  ..  OOXXXOO  ooooooooooo ..  .  .. ",
"OOXXXXOO  oooooooooooo . .. ..  OOXXXXOO  oooooooooooo . .. ..  ",
"OXXXOOO . oooooooooooo ......  OOXXXOOO . oooooooooooo ......  O",
"XXOOO  .. ooooooooooooo ..... OOXXOOO  .. ooooooooooooo ..... OO",
"OOO  ...  oooooooooooooo .... OOOOO  ...  oooooooooooooo .... OO",
"   ....  oooooooooooooooo  ..      ....  oooooooooooooooo  ..   ",
".....   ooooooooooooooooooo    ......   ooooooooooooooooooo    .",
"....  ooooooooooooooooooooooooo ....  ooooooooooooooooooooooooo ",
"    oooooooooooooooooooooooooooo    oooooooooooooooooooooooooooo",
"oooooooooooooooooooooooooooooooooooooooooooooooooooooooooooooooo",
"oooooooooooooooooooooooooooooooooooooooooooooooooooooooooooooooo",
"oooooooooooooooooooooooooooooooooooooooooooooooooooooooooooooooo",
"oooooooooooooooooooooooooooooooooooooooooooooooooooooooooooooooo",
"oooooooooooooooooooooooooooooooooooooooooooooooooooooooooooooooo",
"oooooooooooooooooooooooooooooooooooooooooooooooooooooooooooooooo",
"oooooooooooooooooooooooooo    oooooooooooooooooooooooooooo    oo",
"oooooooooooooooooooooooo  ....  oooooooooooooooooooooooo  ....  ",
" oooooooooooooooooooooo ........ oooooooooooooooooooooo ........",
". oooooooooooooooooooo .......... oooooooooooooooooooo .........",
"..     ooooooooooooooo ..  .......     ooooooooooooooo ..  .....",
".  OOO  ooooooooooooo ... .......  OOO  ooooooooooooo ... ......",
"  OOXOO  oooooooooooo ..........  OOXOO  oooooooooooo ..........",
" OOXXXOO  ooooooooooo ..  .  ..  OOXXXOO  ooooooooooo ..  .  .. ",
"OOXXXXOO  oooooooooooo . .. ..  OOXXXXOO  oooooooooooo . .. ..  ",
"OXXXOOO . oooooooooooo ......  OOXXXOOO . oooooooooooo ......  O",
"XXOOO  .. ooooooooooooo ..... OOXXOOO  .. ooooooooooooo ..... OO",
"OOO  ...  oooooooooooooo .... OOOOO  ...  oooooooooooooo .... OO",
"   ....  oooooooooooooooo  ..      ....  oooooooooooooooo  ..   ",
".....   ooooooooooooooooooo    ......   ooooooooooooooooooo    .",
"....  ooooooooooooooooooooooooo ....  ooooooooooooooooooooooooo ",
"    oooooooooooooooooooooooooooo    oooooooooooooooooooooooooooo",
"oooooooooooooooooooooooooooooooooooooooooooooooooooooooooooooooo",
"oooooooooooooooooooooooooooooooooooooooooooooooooooooooooooooooo",
"oooooooooooooooooooooooooooooooooooooooooooooooooooooooooooooooo",
"oooooooooooooooooooooooooooooooooooooooooooooooooooooooooooooooo",
"oooooooooooooooooooooooooooooooooooooooooooooooooooooooooooooooo",
"oooooooooooooooooooooooooooooooooooooooooooooooooooooooooooooooo",
"oooooooooooooooooooooooooo    oooooooooooooooooooooooooooo    oo",
"oooooooooooooooooooooooo  ....  oooooooooooooooooooooooo  ....  ",
" oooooooooooooooooooooo ........ oooooooooooooooooooooo ........",
". oooooooooooooooooooo .......... oooooooooooooooooooo .........",
"..     ooooooooooooooo ..  .......     ooooooooooooooo ..  .....",
".  OOO  ooooooooooooo ... .......  OOO  ooooooooooooo ... ......",
"  OOXOO  oooooooooooo ..........  OOXOO  oooooooooooo ..........",
" OOXXXOO  ooooooooooo ..  .  ..  OOXXXOO  ooooooooooo ..  .  .. ",
"OOXXXXOO  oooooooooooo . .. ..  OOXXXXOO  oooooooooooo . .. ..  ",
"OXXXOOO . oooooooooooo ......  OOXXXOOO . oooooooooooo ......  O",
"XXOOO  .. ooooooooooooo ..... OOXXOOO  .. ooooooooooooo ..... OO",
"OOO  ...  oooooooooooooo .... OOOOO  ...  oooooooooooooo .... OO",
"   ....  oooooooooooooooo  ..      ....  oooooooooooooooo  ..   ",
".....   ooooooooooooooooooo    ......   ooooooooooooooooooo    .",
"....  ooooooooooooooooooooooooo ....  ooooooooooooooooooooooooo ",
"    oooooooooooooooooooooooooooo    oooooooooooooooooooooooooooo",
"oooooooooooooooooooooooooooooooooooooooooooooooooooooooooooooooo",
"oooooooooooooooooooooooooooooooooooooooooooooooooooooooooooooooo"
};
