/* XPM */
static char *result[] = {
/* columns rows colors chars-per-pixel */
"64 64 6 1 ",
"  c #BE3838",
". c #E25656",
"X c #528C26",
"o c #89E047",
"O c #FFBDBD",
"+ c #F8EAEA",
/* pixels */
"OOOOOOOOOOOOOOOOOOOOOOOOOOOOOOOOOOOOOOOOOOOOOOOOOOOOOOOOOOOOOOOO",
"OOOOOOOOOOOOOOOOOOOOOOOOOOOOOOOOOOOOOOOOOOOOOOOOOOOOOOOOOOOOOOOO",
"OOOXXXOOOOOOOOOOOXXXXOOOXXXOOOOOOOOOOOXXXXOOOXXXOOOOOOOOOOOOXXXX",
"XOXooXOOOOOOOOOOOXoooXOXooXOOOOOOOOOOOXoooXOXooXOOOOOOOOOOOOXooo",
"XXooXOOOOOOOOOOOOOXXoXXooXOOOOOOOOOOOOOXXoXXooXOOOOOOOOOOOOOOXXo",
"OXXXOOOOOOOOOOOOOOOOXOXXXOOOOOOOOOOOOOOOOXOXXXOOOOOOOOOOOOOOOOOX",
"OXOOOOOOOOOOOOOOOOOXOOXOOOOOOOOOOOOOOOOOXOOXOOOOOOOOOOOOOOOOOOXO",
"OXOOOOOOOOOOOOOOOOXOOOXOOOOOOOOOOOOOOOOXOOOXOOOOOOOOOOOOOOOOOXOO",
"OXOOOOOOOOOOOOOO    OOXOOOOOOOOOOOOOO    OOXOOOOOOOOOOOOOOO    O",
"    OOOOOOOOOOO ....     OOOOOOOOOOO ....     OOOOOOOOOOOO .... ",
".... OOOOOOOOO ..... .... OOOOOOOOO ..... .... OOOOOOOOOO ..... ",
"..... OOOOOOOO .+.. ...... OOOOOOOO .+.. ...... OOOOOOOOO .+.. .",
"+.... OOOOOOOO .+.. .+.... OOOOOOOO .+.. .+.... OOOOOOOOO .+.. .",
"+.... OOOOOOOO ..+. .+.... OOOOOOOO ..+. .+.... OOOOOOOOO ..+. .",
".+... OOOOOOOOO ... ..+... OOOOOOOOO ... ..+... OOOOOOOOOO ... .",
".... OOOOOOOOOOO     .... OOOOOOOOOOO     .... OOOOOOOOOOOO     ",
"    OOOOOOOOOOOOOOOOO    OOOOOOOOOOOOOOOOO    OOOOOOOOOOOOOOOOOO",
"OOOOOOOOOOOOOOOOOOOOOOOOOOOOOOOOOOOOOOOOOOOOOOOOOOOOOOOOOOOOOOOO",
"OOOOOOOOOOOOOOOOOOOOOOOOOOOOOOOOOOOOOOOOOOOOOOOOOOOOOOOOOOOOOOOO",
"OOOOOOOOOOOOOOOOOOOOOOOOOOOOOOOOOOOOOOOOOOOOOOOOOOOOOOOOOOOOOOOO",
"OOOOOOOOOOOOOOOOOOOOOOOOOOOOOOOOOOOOOOOOOOOOOOOOOOOOOOOOOOOOOOOO",
"OOOOOOOOOOOOOOOOOOOOOOOOOOOOOOOOOOOOOOOOOOOOOOOOOOOOOOOOOOOOOOOO",
"OOOOOOOOOOOOOOOOOOOOOOOOOOOOOOOOOOOOOOOOOOOOOOOOOOOOOOOOOOOOOOOO",
"OOOOOOOOOOOOOOOOOOOOOOOOOOOOOOOOOOOOOOOOOOOOOOOOOOOOOOOOOOOOOOOO",
"OOOXXXOOOOOOOOOOOXXXXOOOXXXOOOOOOOOOOOXXXXOOOXXXOOOOOOOOOOOOXXXX",
"XOXooXOOOOOOOOOOOXoooXOXooXOOOOOOOOOOOXoooXOXooXOOOOOOOOOOOOXooo",
"XXooXOOOOOOOOOOOOOXXoXXooXOOOOOOOOOOOOOXXoXXooXOOOOOOOOOOOOOOXXo",
"OXXXOOOOOOOOOOOOOOOOXOXXXOOOOOOOOOOOOOOOOXOXXXOOOOOOOOOOOOOOOOOX",
"OXOOOOOOOOOOOOOOOOOXOOXOOOOOOOOOOOOOOOOOXOOXOOOOOOOOOOOOOOOOOOXO",
"OXOOOOOOOOOOOOOOOOXOOOXOOOOOOOOOOOOOOOOXOOOXOOOOOOOOOOOOOOOOOXOO",
"OXOOOOOOOOOOOOOO    OOXOOOOOOOOOOOOOO    OOXOOOOOOOOOOOOOOO    O",
"    OOOOOOOOOOO ....     OOOOOOOOOOO ....     OOOOOOOOOOOO .... ",
".... OOOOOOOOO ..... .... OOOOOOOOO ..... .... OOOOOOOOOO ..... ",
"..... OOOOOOOO .+.. ...... OOOOOOOO .+.. ...... OOOOOOOOO .+.. .",
"+.... OOOOOOOO .+.. .+.... OOOOOOOO .+.. .+.... OOOOOOOOO .+.. .",
"+.... OOOOOOOO ..+. .+.... OOOOOOOO ..+. .+.... OOOOOOOOO ..+. .",
".+... OOOOOOOOO ... ..+... OOOOOOOOO ... ..+... OOOOOOOOOO ... .",
".... OOOOOOOOOOO     .... OOOOOOOOOOO     .... OOOOOOOOOOOO     ",
"    OOOOOOOOOOOOOOOOO    OOOOOOOOOOOOOOOOO    OOOOOOOOOOOOOOOOOO",
"OOOOOOOOOOOOOOOOOOOOOOOOOOOOOOOOOOOOOOOOOOOOOOOOOOOOOOOOOOOOOOOO",
"OOOOOOOOOOOOOOOOOOOOOOOOOOOOOOOOOOOOOOOOOOOOOOOOOOOOOOOOOOOOOOOO",
"OOOOOOOOOOOOOOOOOOOOOOOOOOOOOOOOOOOOOOOOOOOOOOOOOOOOOOOOOOOOOOOO",
"OOOOOOOOOOOOOOOOOOOOOOOOOOOOOOOOOOOOOOOOOOOOOOOOOOOOOOOOOOOOOOOO",
"OOOOOOOOOOOOOOOOOOOOOOOOOOOOOOOOOOOOOOOOOOOOOOOOOOOOOOOOOOOOOOOO",
"OOOOOOOOOOOOOOOOOOOOOOOOOOOOOOOOOOOOOOOOOOOOOOOOOOOOOOOOOOOOOOOO",
"OOOOOOOOOOOOOOOOOOOOOOOOOOOOOOOOOOOOOOOOOOOOOOOOOOOOOOOOOOOOOOOO",
"OOOOOOOOOOOOOOOOOOOOOOOOOOOOOOOOOOOOOOOOOOOOOOOOOOOOOOOOOOOOOOOO",
"OOOXXXOOOOOOOOOOOXXXXOOOXXXOOOOOOOOOOOXXXXOOOXXXOOOOOOOOOOOOXXXX",
"XOXooXOOOOOOOOOOOXoooXOXooXOOOOOOOOOOOXoooXOXooXOOOOOOOOOOOOXooo",
"XXooXOOOOOOOOOOOOOXXoXXooXOOOOOOOOOOOOOXXoXXooXOOOOOOOOOOOOOOXXo",
"OXXXOOOOOOOOOOOOOOOOXOXXXOOOOOOOOOOOOOOOOXOXXXOOOOOOOOOOOOOOOOOX",
"OXOOOOOOOOOOOOOOOOOXOOXOOOOOOOOOOOOOOOOOXOOXOOOOOOOOOOOOOOOOOOXO",
"OXOOOOOOOOOOOOOOOOXOOOXOOOOOOOOOOOOOOOOXOOOXOOOOOOOOOOOOOOOOOXOO",
"OXOOOOOOOOOOOOOO    OOXOOOOOOOOOOOOOO    OOXOOOOOOOOOOOOOOO    O",
"    OOOOOOOOOOO ....     OOOOOOOOOOO ....     OOOOOOOOOOOO .... ",
".... OOOOOOOOO ..... .... OOOOOOOOO ..... .... OOOOOOOOOO ..... ",
"..... OOOOOOOO .+.. ...... OOOOOOOO .+.. ...... OOOOOOOOO .+.. .",
"+.... OOOOOOOO .+.. .+.... OOOOOOOO .+.. .+.... OOOOOOOOO .+.. .",
"+.... OOOOOOOO ..+. .+.... OOOOOOOO ..+. .+.... OOOOOOOOO ..+. .",
".+... OOOOOOOOO ... ..+... OOOOOOOOO ... ..+... OOOOOOOOOO ... .",
".... OOOOOOOOOOO     .... OOOOOOOOOOO     .... OOOOOOOOOOOO     ",
"    OOOOOOOOOOOOOOOOO    OOOOOOOOOOOOOOOOO    OOOOOOOOOOOOOOOOOO",
"OOOOOOOOOOOOOOOOOOOOOOOOOOOOOOOOOOOOOOOOOOOOOOOOOOOOOOOOOOOOOOOO",
"OOOOOOOOOOOOOOOOOOOOOOOOOOOOOOOOOOOOOOOOOOOOOOOOOOOOOOOOOOOOOOOO"
};
